<svg width="126" height="26" viewBox="0 0 126 26" fill="none" xmlns="http://www.w3.org/2000/svg">
<g clip-path="url(#clip0_75_488)">
<path d="M59.0814 5.40466C57.7405 3.79639 55.9093 2.9919 53.5878 2.99118C51.4348 2.99118 49.6273 3.72084 48.1651 5.18015C46.7029 6.63947 45.9714 8.41612 45.9707 10.5101C45.9707 12.7343 46.6971 14.5765 48.1498 16.0365C49.6026 17.4965 51.4338 18.2258 53.6434 18.2244C55.4172 18.2244 56.9745 17.7286 58.3154 16.737C59.6563 15.7454 60.5152 14.4178 60.8922 12.7541H57.2967C57.0068 13.4162 56.4975 13.9603 55.853 14.2966C55.1782 14.6697 54.4173 14.8631 53.6445 14.8578C52.5113 14.8578 51.5721 14.5257 50.8269 13.8616C50.0816 13.1974 49.6425 12.2857 49.5096 11.1264H61.0916C61.0916 8.92019 60.4215 7.01293 59.0814 5.40466ZM49.7362 8.88241C49.9775 8.09138 50.4817 7.40441 51.1668 6.93306C51.8554 6.45598 52.6719 6.21743 53.6161 6.21743C54.5415 6.21743 55.3155 6.4513 55.938 6.91903C56.5605 7.38676 56.9851 8.04122 57.2117 8.88241H49.7362Z" fill="white"/>
<path d="M86.2932 14.3181C85.6185 14.6904 84.858 14.8834 84.0857 14.8783C82.9547 14.8783 82.0166 14.5466 81.2714 13.8831C80.5261 13.2197 80.0881 12.3087 79.9574 11.1502H91.5296C91.5296 8.94607 90.8599 7.03917 89.5204 5.42946C88.181 3.81975 86.3513 3.01742 84.0312 3.02245C81.8812 3.02245 80.0754 3.75103 78.6139 5.20819C77.1525 6.66535 76.4214 8.44056 76.4207 10.5338C76.4207 12.7573 77.147 14.598 78.5998 16.0559C80.0525 17.5138 81.8819 18.2424 84.0879 18.2416C85.8617 18.2416 87.4179 17.7466 88.7566 16.7564C90.0954 15.7663 90.9536 14.4394 91.3313 12.7757H87.7357C87.446 13.4374 86.9371 13.9815 86.2932 14.3181ZM81.608 6.96002C82.2966 6.48365 83.1124 6.24547 84.0552 6.24547C84.9806 6.24547 85.7542 6.47897 86.376 6.94598C86.9977 7.41299 87.4219 8.0671 87.6486 8.90829H80.184C80.4233 8.11836 80.9252 7.43178 81.608 6.96002Z" fill="white"/>
<path d="M74.9944 8.45349C74.9944 5.46686 72.4786 3.0361 69.3864 3.0361H62.6235V18.2661H65.5218V13.872H68.3416L71.1842 18.2661H74.6098L71.5035 13.4629C73.5998 12.6285 74.9944 10.6446 74.9944 8.45349ZM69.3864 11.0008H65.5218V5.90616H69.3864C70.8813 5.90616 72.0962 7.04922 72.0962 8.45349C72.0962 9.85776 70.8813 11.0008 69.3864 11.0008Z" fill="white"/>
<path d="M41.2062 2.96384V4.7556C40.0836 3.82009 38.7147 3.22162 37.2605 3.03059C35.8062 2.83955 34.3272 3.06391 32.9973 3.67725C31.6674 4.29059 30.542 5.26742 29.7534 6.49283C28.9648 7.71823 28.5459 9.14125 28.5459 10.5945C28.5459 12.0477 28.9648 13.4707 29.7534 14.6961C30.542 15.9215 31.6674 16.8984 32.9973 17.5117C34.3272 18.1251 35.8062 18.3494 37.2605 18.1584C38.7147 17.9673 40.0836 17.3689 41.2062 16.4334V18.0125C41.2096 18.4408 41.0417 18.853 40.739 19.1589C40.4364 19.4648 40.0237 19.6394 39.5914 19.6445H28.552V23.024H39.5914C40.9277 23.0183 42.2071 22.4879 43.1491 21.549C44.0911 20.6101 44.6188 19.3395 44.6165 18.0157V2.96384H41.2062ZM36.2541 14.796C35.4152 14.796 34.5951 14.5495 33.8976 14.0878C33.2 13.6261 32.6564 12.9698 32.3353 12.202C32.0143 11.4342 31.9303 10.5893 32.094 9.77417C32.2576 8.95906 32.6616 8.21034 33.2548 7.62267C33.848 7.03501 34.6038 6.63481 35.4266 6.47267C36.2494 6.31054 37.1023 6.39375 37.8773 6.71179C38.6524 7.02983 39.3148 7.56842 39.7809 8.25943C40.247 8.95045 40.4958 9.76287 40.4958 10.5939C40.4938 11.7078 40.0462 12.7754 39.2512 13.563C38.4562 14.3506 37.3784 14.794 36.2541 14.796Z" fill="white"/>
<path d="M21.9981 7.27069C21.3073 7.18865 20.5926 7.12389 19.9454 6.90802C17.3217 6.02725 15.5403 4.25815 14.4976 1.71838C13.9332 0.342173 12.7881 -0.237452 11.4784 0.099313C10.944 0.238606 10.4752 0.557546 10.152 1.00155C9.82879 1.44556 9.67142 1.98703 9.70679 2.53331C9.77761 3.80913 10.695 4.67263 12.1158 4.88526C12.8327 4.98404 13.5383 5.15066 14.223 5.38286C16.7497 6.2755 18.4374 8.05431 19.4998 10.4559C20.026 11.6432 20.9925 12.2455 22.1583 12.075C23.2903 11.9131 24.0977 11.0906 24.2393 9.95617C24.4137 8.5573 23.4701 7.4477 21.9981 7.27069Z" fill="#2CC84D"/>
<path d="M2.2619 7.27057C2.95269 7.18853 3.66308 7.12377 4.31464 6.9079C6.9383 6.02713 8.71973 4.25803 9.76244 1.71826C10.3268 0.338818 11.4709 -0.240807 12.7805 0.0905613C13.3167 0.229886 13.7872 0.549986 14.1109 0.995793C14.4347 1.4416 14.5915 1.98524 14.5543 2.53319C14.4835 3.80901 13.565 4.67251 12.1453 4.88515C11.4284 4.9838 10.7228 5.15042 10.0381 5.38274C7.5114 6.27538 5.82259 8.05419 4.76027 10.4558C4.23401 11.6431 3.26757 12.2454 2.10283 12.0749C1.56521 12.007 1.06667 11.7607 0.688526 11.3761C0.310384 10.9915 0.0749654 10.4913 0.0206779 9.95713C-0.153652 8.55718 0.789908 7.44758 2.2619 7.27057Z" fill="#2CC84D"/>
<path d="M2.2619 18.7292C2.95268 18.8112 3.66308 18.876 4.31463 19.0951C6.9383 19.9759 8.71973 21.745 9.76243 24.2858C10.3279 25.6609 11.472 26.2406 12.7816 25.9049C13.3178 25.7655 13.7883 25.4454 14.112 24.9996C14.4358 24.5538 14.5925 24.0102 14.5554 23.4622C14.4846 22.1875 13.5661 21.3229 12.1464 21.1103C11.4294 21.0122 10.7234 20.8467 10.0381 20.6159C7.5114 19.7222 5.82259 17.9434 4.76026 15.5429C4.23401 14.3556 3.26866 13.7576 2.10283 13.9238C1.56505 13.9917 1.06637 14.2381 0.688211 14.623C0.310048 15.0078 0.0747329 15.5082 0.0206779 16.0426C-0.153652 17.4426 0.789907 18.5543 2.2619 18.7292Z" fill="#2CC84D"/>
<path d="M21.9983 18.7295C21.3075 18.8116 20.5971 18.8763 19.9456 19.0955C17.3219 19.9762 15.5405 21.7453 14.4978 24.2862C13.9334 25.6613 12.7882 26.2409 11.4786 25.9052C10.9425 25.7659 10.4721 25.4457 10.1486 24.9999C9.82502 24.5541 9.66847 24.0105 9.70587 23.4626C9.7767 22.1879 10.6941 21.3233 12.1149 21.1106C12.8316 21.0117 13.5372 20.8455 14.2221 20.6141C16.7488 19.7204 18.4365 17.9416 19.4988 15.5411C20.0251 14.3538 20.9915 13.7515 22.1574 13.922C23.2894 14.0839 24.0968 14.9064 24.2384 16.0408C24.4139 17.4429 23.4703 18.5547 21.9983 18.7295Z" fill="#2CC84D"/>
<path d="M17.8437 12.9601C17.8449 13.3542 17.8003 13.7472 17.7107 14.1312C17.6177 14.536 17.4746 14.9279 17.2847 15.298C16.8339 16.1818 16.1435 16.9239 15.2911 17.4411C14.4386 17.9583 13.4576 18.2302 12.458 18.2263C9.48346 18.2263 7.07227 15.869 7.07227 12.9601C7.07227 10.0511 9.4791 7.69379 12.458 7.69379C12.8832 7.69277 13.307 7.74131 13.7208 7.83842C13.2021 8.06868 12.7616 8.4425 12.4523 8.91491C12.1431 9.38731 11.9782 9.93818 11.9775 10.5012C11.9748 10.5415 11.9748 10.5819 11.9775 10.6221C12.0135 11.3831 12.3452 12.1008 12.9033 12.6249C13.4614 13.149 14.2026 13.4389 14.9716 13.4339C15.2667 13.4339 15.5603 13.3917 15.8432 13.3087C16.2464 13.1887 16.6193 12.9856 16.9376 12.7127C17.2559 12.4398 17.5123 12.1033 17.69 11.7253C17.7917 12.1291 17.8433 12.5438 17.8437 12.9601Z" fill="#2CC84D"/>
<path d="M92.4219 4.46214C92.4219 4.77372 92.3493 5.00435 92.204 5.15402C92.058 5.30405 91.8368 5.37853 91.5383 5.37853C91.2397 5.37853 91.0131 5.30405 90.8671 5.15402C90.7211 5.00399 90.6492 4.77408 90.6492 4.46214C90.6492 4.1502 90.7222 3.92245 90.8671 3.77566C91.012 3.62886 91.2365 3.55115 91.5383 3.55115C91.8401 3.55115 92.058 3.6267 92.204 3.77566C92.35 3.92461 92.4219 4.15344 92.4219 4.46214ZM92.3206 4.46214C92.3206 4.18654 92.2563 3.98182 92.1277 3.84798C91.9991 3.71413 91.8023 3.64685 91.5372 3.64613C91.2691 3.64613 91.0708 3.71341 90.9423 3.84798C90.8137 3.98254 90.7491 4.18726 90.7483 4.46214C90.7483 4.7417 90.8126 4.94786 90.9423 5.08278C91.0719 5.2177 91.2691 5.28354 91.5372 5.28354C91.8052 5.28354 91.9991 5.21662 92.1277 5.08278C92.2563 4.94894 92.3206 4.7417 92.3206 4.46214ZM91.3051 4.58735V4.96513H91.1961V3.95483H91.5328C91.6387 3.94551 91.7447 3.97092 91.8346 4.02715C91.867 4.05706 91.892 4.09392 91.9076 4.13491C91.9233 4.1759 91.9293 4.2199 91.9251 4.26353C91.9301 4.34028 91.9086 4.41643 91.864 4.47941C91.8172 4.53491 91.7512 4.57109 91.6788 4.58087L91.9588 4.96513H91.8281L91.572 4.59166L91.3051 4.58735ZM91.8324 4.26353C91.8351 4.23296 91.8301 4.20221 91.8179 4.17399C91.8058 4.14576 91.7868 4.12092 91.7627 4.10163C91.6971 4.06268 91.6211 4.0446 91.5448 4.04982H91.3051V4.50208H91.5415C91.6186 4.50794 91.6954 4.48778 91.7594 4.44487C91.7843 4.42203 91.8035 4.39374 91.8154 4.36226C91.8274 4.33077 91.8317 4.29697 91.8281 4.26353H91.8324Z" fill="white"/>
<path d="M97.9513 17.9479H95.5652V3.70657H97.9513V17.9479Z" fill="#8190B1"/>
<path d="M106.154 5.55145C104.911 5.55145 104.053 5.69537 103.578 5.9832C103.103 6.27104 102.865 6.85714 102.864 7.74151C102.864 8.20348 102.976 8.55428 103.2 8.7939C103.423 9.03352 103.777 9.19219 104.261 9.2699L107.958 9.82255C109.12 9.99525 109.935 10.355 110.402 10.9019C110.869 11.4488 111.102 12.3087 111.1 13.4816C111.1 15.1367 110.702 16.3333 109.907 17.0716C109.112 17.8099 107.793 18.1798 105.95 18.1812C104.919 18.1857 103.888 18.128 102.864 18.0085C102.066 17.9239 101.278 17.7693 100.507 17.5466V15.3274C101.256 15.5466 102.021 15.7054 102.796 15.8023C103.716 15.9287 104.645 15.9915 105.574 15.9901C106.777 15.9901 107.602 15.817 108.048 15.4709C108.495 15.1248 108.718 14.5099 108.717 13.6263C108.717 13.0693 108.591 12.6609 108.339 12.4012C108.087 12.1414 107.631 11.9637 106.971 11.868L103.275 11.3196C102.341 11.1851 101.646 10.83 101.192 10.2543C100.737 9.67863 100.499 8.84247 100.478 7.74583C100.478 6.24693 100.929 5.15137 101.831 4.45913C102.733 3.76689 104.126 3.42113 106.008 3.42185C106.783 3.42185 107.486 3.44091 108.117 3.47905C108.785 3.52203 109.451 3.59913 110.111 3.71004V5.81482C109.606 5.73855 109.014 5.67594 108.336 5.62701C107.658 5.57808 106.93 5.55289 106.154 5.55145Z" fill="#8190B1"/>
<path d="M115.785 22.3299H113.399V3.70634H115.469L115.615 4.97461H115.703C116.339 4.45614 117.07 4.06467 117.857 3.82184C118.722 3.54805 119.625 3.4118 120.534 3.41815C122.495 3.41815 123.896 3.99382 124.738 5.14515C125.58 6.29649 126.001 8.17928 126 10.7935C126 13.4078 125.486 15.2913 124.458 16.4441C123.43 17.5968 121.713 18.1725 119.307 18.1711C118.65 18.1753 117.994 18.1269 117.346 18.0264C116.811 17.9469 116.288 17.8019 115.789 17.5947L115.785 22.3299ZM123.614 10.7935C123.614 8.83338 123.337 7.46905 122.785 6.70053C122.232 5.93202 121.199 5.5474 119.685 5.54668C118.989 5.54356 118.297 5.64585 117.633 5.84998C116.977 6.0538 116.353 6.34967 115.781 6.7286V15.4068C116.265 15.5985 116.767 15.7431 117.28 15.8385C117.852 15.9394 118.431 15.9875 119.011 15.9821C120.816 15.9821 122.033 15.6122 122.664 14.8725C123.294 14.1328 123.611 12.7731 123.614 10.7935Z" fill="#8190B1"/>
</g>
<defs>
<clipPath id="clip0_75_488">
<rect width="126" height="26" fill="white"/>
</clipPath>
</defs>
</svg>
