<svg width="85" height="24" viewBox="0 0 85 24" fill="none" xmlns="http://www.w3.org/2000/svg">
<path d="M53.8682 4.98972C52.6459 3.50524 50.9763 2.763 48.8595 2.763C46.8966 2.763 45.2484 3.43615 43.9148 4.78245C42.5812 6.12875 41.9142 7.76917 41.9138 9.7037C41.9138 11.7579 42.5766 13.4583 43.9021 14.805C45.2276 16.1517 46.8972 16.8249 48.9108 16.8245C50.5273 16.8245 51.9473 16.3671 53.1708 15.4523C54.3944 14.5375 55.1776 13.3118 55.5205 11.7753H52.2414C51.9835 12.3797 51.5445 12.8545 50.9245 13.1995C50.3091 13.5435 49.6154 13.7219 48.9108 13.7171C47.8782 13.7171 47.0219 13.4109 46.3418 12.7983C45.6617 12.1858 45.2617 11.3441 45.1416 10.2734H55.7012C55.7012 8.23543 55.0902 6.4742 53.8682 4.98972ZM45.3477 8.2007C45.5677 7.47046 46.0273 6.83618 46.6518 6.40068C47.2799 5.96066 48.0243 5.74065 48.8849 5.74065C49.7281 5.74065 50.4338 5.95641 51.0019 6.38794C51.57 6.81946 51.9573 7.42372 52.164 8.2007H45.3477Z" fill="#181F2E"/>
<path d="M78.6806 13.2168C78.0658 13.5608 77.3726 13.7392 76.6687 13.7344C75.6368 13.7344 74.7812 13.4284 74.1019 12.8162C73.4226 12.204 73.0227 11.3632 72.9023 10.2936H83.4532C83.4532 8.25874 82.8426 6.49963 81.6214 5.01631C80.4002 3.53298 78.7322 2.79132 76.6173 2.79132C74.6567 2.79132 73.01 3.46389 71.6772 4.80903C70.3444 6.15418 69.678 7.79266 69.678 9.7245C69.678 11.7771 70.3402 13.4755 71.6645 14.8194C72.9889 16.1634 74.6569 16.836 76.6687 16.8372C78.2851 16.8372 79.704 16.3802 80.9252 15.4661C82.1464 14.5521 82.9289 13.3276 83.2725 11.7926H79.9946C79.7375 12.397 79.2995 12.8718 78.6806 13.2168ZM74.4085 6.4261C75.0366 5.98608 75.7804 5.76607 76.6398 5.76607C77.4827 5.76607 78.188 5.98164 78.7556 6.41278C79.3233 6.84392 79.7101 7.4476 79.916 8.2238H73.1038C73.3246 7.49361 73.7855 6.85995 74.4114 6.4261H74.4085Z" fill="#181F2E"/>
<path d="M68.3766 7.80465C68.3766 5.04759 66.083 2.80408 63.264 2.80408H57.0983V16.8615H59.7401V12.8052H62.312L64.903 16.8615H68.0268L65.1939 12.4283C67.106 11.6606 68.3766 9.82757 68.3766 7.80465ZM63.264 10.1558H59.7424V5.45345H63.264C64.6264 5.45345 65.7349 6.50833 65.7349 7.80465C65.7349 9.10096 64.6264 10.1558 63.264 10.1558Z" fill="#181F2E"/>
<path d="M37.5696 2.7381V4.39164C36.5461 3.52809 35.298 2.97563 33.9721 2.79925C32.6462 2.62287 31.2976 2.82991 30.085 3.39601C28.8724 3.96211 27.8463 4.86372 27.1272 5.99479C26.4082 7.12586 26.0262 8.43933 26.0262 9.7807C26.0262 11.1221 26.4082 12.4356 27.1272 13.5666C27.8463 14.6977 28.8724 15.5993 30.085 16.1654C31.2976 16.7315 32.6462 16.9385 33.9721 16.7622C35.298 16.5858 36.5461 16.0333 37.5696 15.1698V16.6276C37.5733 17.0229 37.4204 17.4034 37.1444 17.6857C36.8685 17.9679 36.4922 18.1288 36.098 18.1329H26.0332V21.2519H36.098C38.6243 21.2519 40.6796 19.178 40.6796 16.6293V2.7381H37.5696ZM33.0556 13.6586C32.2906 13.6586 31.5427 13.4311 30.9066 13.0049C30.2706 12.5787 29.7748 11.9728 29.482 11.264C29.1893 10.5552 29.1127 9.77524 29.2619 9.02277C29.4112 8.2703 29.7796 7.57911 30.3205 7.0366C30.8614 6.4941 31.5507 6.12465 32.301 5.97498C33.0513 5.8253 33.829 5.90212 34.5358 6.19572C35.2426 6.48932 35.8467 6.98651 36.2717 7.62443C36.6967 8.26235 36.9236 9.01233 36.9236 9.77954C36.9227 10.8081 36.5149 11.7942 35.7897 12.5215C35.0645 13.2487 34.0812 13.6577 33.0556 13.6586Z" fill="#181F2E"/>
<path d="M20.0574 6.71097C19.4281 6.6357 18.7798 6.57549 18.1857 6.37343C15.7939 5.55998 14.1699 3.92728 13.2208 1.58245C12.7059 0.312765 11.6621 -0.221625 10.4682 0.0840714C9.46598 0.341134 8.79399 1.27849 8.85172 2.33858C8.9158 3.51563 9.75348 4.31287 11.0455 4.50914C11.6998 4.60056 12.3437 4.75489 12.9685 4.97C15.272 5.79446 16.8117 7.43584 17.7804 9.64983C18.2596 10.7464 19.1412 11.3022 20.2052 11.1482C21.2374 10.9988 21.974 10.2398 22.1034 9.19244C22.2633 7.90075 21.3973 6.87424 20.0574 6.71097Z" fill="#2CC84D"/>
<path d="M2.06307 6.71097C2.69234 6.6357 3.34066 6.57549 3.93472 6.37343C6.32652 5.55998 7.9505 3.92728 8.89961 1.58245C9.41457 0.312765 10.4584 -0.221625 11.6517 0.0840714C12.6545 0.341134 13.3259 1.27849 13.2681 2.33858C13.2035 3.51563 12.3664 4.31287 11.0743 4.50914C10.4205 4.6001 9.77695 4.75385 9.15247 4.96827C6.84899 5.79272 5.30988 7.43411 4.34115 9.64809C3.8614 10.7447 2.97984 11.3005 1.91643 11.1465C0.884195 10.9971 0.147544 10.2381 0.0188037 9.1907C-0.139957 7.90076 0.720816 6.87424 2.06307 6.71097Z" fill="#2CC84D"/>
<path d="M2.06307 17.2893C2.69234 17.3646 3.34066 17.4248 3.93472 17.6269C6.32652 18.4403 7.9505 20.073 8.89961 22.4173C9.41457 23.6875 10.4584 24.2219 11.6517 23.9156C12.6545 23.6592 13.3259 22.7212 13.2681 21.6617C13.2035 20.4847 12.3664 19.6874 11.0743 19.4912C10.4206 19.3999 9.77703 19.2462 9.15247 19.032C6.84899 18.2076 5.30988 16.5656 4.34115 14.3516C3.8614 13.2556 2.97984 12.6998 1.91643 12.8538C0.884195 13.0032 0.147544 13.7622 0.0188037 14.8096C-0.139957 16.1013 0.720816 17.1278 2.06307 17.2893Z" fill="#2CC84D"/>
<path d="M20.0574 17.2893C19.4281 17.3646 18.7798 17.4248 18.1857 17.6269C15.7939 18.4403 14.1699 20.073 13.2208 22.4173C12.7059 23.6875 11.6621 24.2219 10.4682 23.9156C9.46598 23.6592 8.79399 22.7212 8.85172 21.6617C8.9158 20.4847 9.75348 19.6874 11.0455 19.4912C11.6997 19.4 12.3436 19.2463 12.9685 19.032C15.272 18.2076 16.8117 16.5656 17.7804 14.3516C18.2596 13.2556 19.1412 12.6998 20.2052 12.8538C21.2374 13.0032 21.974 13.7622 22.1034 14.8096C22.2633 16.1013 21.3973 17.1278 20.0574 17.2893Z" fill="#2CC84D"/>
<path d="M16.2702 11.964C16.271 12.3278 16.2299 12.6905 16.1478 13.0449C16.0635 13.4186 15.9332 13.7803 15.7599 14.1218C15.3491 14.9377 14.7198 15.6228 13.9426 16.1003C13.1655 16.5777 12.271 16.8287 11.3596 16.825C8.64623 16.825 6.44897 14.6492 6.44897 11.9616C6.44897 9.27405 8.6468 7.09828 11.3596 7.09828C11.7471 7.09734 12.1333 7.14243 12.5102 7.2326C12.0366 7.44444 11.6342 7.78911 11.3515 8.22508C11.0688 8.66105 10.9178 9.16971 10.9168 9.68975C10.916 9.72706 10.9176 9.76438 10.9214 9.8015C10.9791 11.2443 12.1765 12.397 13.6521 12.397C13.9226 12.3974 14.1918 12.3584 14.4511 12.2812C14.8185 12.1703 15.1584 11.9828 15.4485 11.7309C15.7386 11.4791 15.9724 11.1687 16.1346 10.8199C16.2259 11.1943 16.2715 11.5785 16.2702 11.964Z" fill="#2CC84D"/>
<path d="M84.2666 4.12067C84.2666 4.40861 84.2002 4.6209 84.0674 4.75754C83.9347 4.89417 83.7316 4.96365 83.4584 4.96596C83.1836 4.96596 82.9798 4.89707 82.847 4.75927C82.7142 4.62148 82.6478 4.40919 82.6478 4.1224C82.6478 3.83755 82.7142 3.62623 82.847 3.48843C82.9798 3.35064 83.1836 3.28174 83.4584 3.28174C83.7305 3.28174 83.9329 3.35064 84.0657 3.48843C84.1985 3.62623 84.2655 3.83697 84.2666 4.12067ZM84.1748 4.12067C84.1748 3.86669 84.1161 3.67756 83.9987 3.55328C83.8814 3.42899 83.7018 3.36704 83.4601 3.36743C83.2157 3.36743 83.0348 3.42938 82.9174 3.55328C82.8 3.67718 82.7412 3.86631 82.7408 4.12067C82.7408 4.37812 82.7997 4.56879 82.9174 4.69269C83.0352 4.81659 83.2161 4.87854 83.4601 4.87854C83.7014 4.87854 83.881 4.81659 83.9987 4.69269C84.1165 4.56879 84.1752 4.37812 84.1748 4.12067ZM83.2448 4.23646V4.58384H83.1536V3.65749H83.4584C83.5871 3.65749 83.6783 3.67949 83.7338 3.72407C83.7631 3.75176 83.7858 3.78582 83.8 3.82366C83.8142 3.8615 83.8196 3.9021 83.8157 3.94234C83.8189 4.01204 83.7986 4.08078 83.758 4.13746C83.7149 4.18874 83.6545 4.22233 83.5883 4.23183L83.8359 4.58558H83.7205L83.4867 4.2382L83.2448 4.23646ZM83.7263 3.93829C83.7285 3.91004 83.7239 3.88166 83.7127 3.85562C83.7015 3.82958 83.6842 3.80668 83.6622 3.78892C83.6015 3.75205 83.5308 3.73524 83.4601 3.74086H83.2448V4.15888H83.4584C83.5298 4.16454 83.601 4.14576 83.6604 4.10561C83.6836 4.08451 83.7016 4.05833 83.713 4.0291C83.7244 3.99988 83.729 3.9684 83.7263 3.93713V3.93829Z" fill="#181F2E"/>
</svg>
