<svg width="16" height="20" viewBox="0 0 16 20" fill="none" xmlns="http://www.w3.org/2000/svg">
<path d="M10 0H2C0.9 0 0 0.9 0 2V18C0 19.1 0.89 20 1.99 20H14C15.1 20 16 19.1 16 18V6L10 0ZM14 18H2V2H9V7H14V18Z" fill="#1E2536"/>
<path d="M5.356 13.492V16H4.764L3.772 14.552V16H3.192V13.492H3.78L4.776 14.996V13.492H5.356Z" fill="#1E2536"/>
<path d="M6.35888 15.088V16H5.73887V13.492H7.43087V14.052H6.35888V14.568H7.28288V15.088H6.35888Z" fill="#1E2536"/>
<path d="M8.62447 15.064L8.11647 14.944C7.9138 14.896 7.77514 14.8227 7.70047 14.724C7.62847 14.6253 7.59247 14.484 7.59247 14.3C7.59247 14.0093 7.66847 13.796 7.82047 13.66C7.97514 13.5213 8.2138 13.452 8.53647 13.452C8.6698 13.452 8.78847 13.4573 8.89247 13.468C8.99647 13.4787 9.09247 13.4973 9.18047 13.524V14.08C8.9778 14.0453 8.8378 14.0253 8.76047 14.02C8.6858 14.0147 8.60713 14.012 8.52447 14.012C8.41247 14.012 8.33114 14.0307 8.28047 14.068C8.2298 14.1053 8.20447 14.168 8.20447 14.256C8.20447 14.2987 8.21247 14.332 8.22847 14.356C8.24447 14.3773 8.27514 14.3933 8.32047 14.404L8.80047 14.516C8.93914 14.548 9.03913 14.58 9.10047 14.612C9.1618 14.6413 9.21113 14.68 9.24847 14.728C9.29113 14.7787 9.3218 14.844 9.34047 14.924C9.3618 15.004 9.37247 15.1013 9.37247 15.216C9.37247 15.5067 9.29514 15.7173 9.14047 15.848C8.9858 15.976 8.7458 16.04 8.42047 16.04C8.25514 16.04 8.0978 16.0293 7.94847 16.008C7.79914 15.9893 7.68314 15.9653 7.60047 15.936V15.348C7.70714 15.3827 7.8338 15.4107 7.98047 15.432C8.12714 15.4507 8.2738 15.46 8.42047 15.46C8.5378 15.46 8.61914 15.4453 8.66447 15.416C8.7098 15.3867 8.73247 15.328 8.73247 15.24C8.73247 15.184 8.72447 15.144 8.70847 15.12C8.69514 15.0933 8.66714 15.0747 8.62447 15.064Z" fill="#1E2536"/>
<path d="M10.8415 14.5V14.952H9.5655V14.5H10.8415Z" fill="#1E2536"/>
<path d="M12.7768 15.416V15.892C12.7128 15.932 12.6048 15.9667 12.4528 15.996C12.3007 16.0253 12.1407 16.04 11.9727 16.04C11.6528 16.04 11.4221 15.96 11.2808 15.8C11.1394 15.6373 11.0688 15.3747 11.0688 15.012C11.0688 14.6573 11.1434 14.3973 11.2928 14.232C11.4421 14.0667 11.6781 13.984 12.0007 13.984C12.3154 13.984 12.5367 14.0467 12.6648 14.172C12.7954 14.2947 12.8608 14.5133 12.8608 14.828C12.8608 14.9133 12.8594 14.9813 12.8568 15.032C12.8541 15.0827 12.8488 15.1413 12.8407 15.208H11.6728C11.6754 15.3173 11.7048 15.3933 11.7607 15.436C11.8167 15.4787 11.9194 15.5 12.0688 15.5C12.1968 15.5 12.3274 15.492 12.4608 15.476C12.5941 15.4573 12.6994 15.4373 12.7768 15.416ZM12.0007 14.496C11.8727 14.496 11.7861 14.5187 11.7408 14.564C11.6954 14.6067 11.6728 14.692 11.6728 14.82H12.3167V14.732C12.3141 14.6387 12.2914 14.576 12.2487 14.544C12.2087 14.512 12.1261 14.496 12.0007 14.496Z" fill="#1E2536"/>
</svg>
