<svg width="42" height="42" viewBox="0 0 42 42" fill="none" xmlns="http://www.w3.org/2000/svg">
<g clip-path="url(#clip0_75_608)">
<path opacity="0.3" d="M8.75 32.0425L14 30.0125V9.53751L8.75 11.305V32.0425ZM28 32.4625L33.25 30.695V9.95751L28 12.005V32.4625Z" fill="#3EBBFF" fill-opacity="0.4"/>
<path d="M35.875 5.25L35.595 5.3025L26.25 8.925L15.75 5.25L5.88 8.575C5.5125 8.6975 5.25 9.0125 5.25 9.415V35.875C5.25 36.365 5.635 36.75 6.125 36.75L6.405 36.6975L15.75 33.075L26.25 36.75L36.12 33.425C36.4875 33.3025 36.75 32.9875 36.75 32.585V6.125C36.75 5.635 36.365 5.25 35.875 5.25ZM14 30.0125L8.75 32.0425V11.305L14 9.5375V30.0125ZM24.5 32.4275L17.5 29.9775V9.5725L24.5 12.0225V32.4275ZM33.25 30.695L28 32.4625V12.005L33.25 9.975V30.695Z" fill="#3EBBFF"/>
</g>
<defs>
<clipPath id="clip0_75_608">
<rect width="42" height="42" fill="white"/>
</clipPath>
</defs>
</svg>
