<svg width="42" height="42" viewBox="0 0 42 42" fill="none" xmlns="http://www.w3.org/2000/svg">
<g clip-path="url(#clip0_75_504)">
<path opacity="0.3" d="M21 7C13.2825 7 7 13.2825 7 21C7 28.7175 13.2825 35 21 35C28.7175 35 35 28.7175 35 21C35 13.2825 28.7175 7 21 7ZM23.1525 30.3275V33.25H19.075V30.2925C16.45 29.75 14.2275 28.0525 14.07 25.095H17.0625C17.22 26.705 18.3225 27.965 21.1225 27.965C24.115 27.965 24.7975 26.46 24.7975 25.5325C24.7975 24.255 24.115 23.065 20.7025 22.26C16.905 21.3325 14.2975 19.775 14.2975 16.6425C14.2975 14 16.4325 12.3025 19.0575 11.725V8.75H23.1525V11.7425C26.005 12.425 27.4225 14.595 27.51 16.94H24.5175C24.4475 15.2425 23.5375 14.07 21.1225 14.07C18.83 14.07 17.4475 15.1025 17.4475 16.5725C17.4475 17.85 18.445 18.7075 21.5425 19.495C24.64 20.3 27.9475 21.63 27.9475 25.48C27.93 28.28 25.83 29.82 23.1525 30.3275Z" fill="#2CC84D" fill-opacity="0.4"/>
<path d="M21 3.5C11.34 3.5 3.5 11.34 3.5 21C3.5 30.66 11.34 38.5 21 38.5C30.66 38.5 38.5 30.66 38.5 21C38.5 11.34 30.66 3.5 21 3.5ZM21 35C13.2825 35 7 28.7175 7 21C7 13.2825 13.2825 7 21 7C28.7175 7 35 13.2825 35 21C35 28.7175 28.7175 35 21 35ZM21.5425 19.495C18.445 18.7075 17.4475 17.85 17.4475 16.5725C17.4475 15.1025 18.83 14.07 21.1225 14.07C23.5375 14.07 24.4475 15.225 24.5175 16.94H27.51C27.4225 14.595 25.9875 12.4425 23.1525 11.7425V8.75H19.075V11.7075C16.4325 12.2675 14.315 13.9825 14.315 16.625C14.315 19.7575 16.9225 21.3325 20.72 22.2425C24.1325 23.0475 24.815 24.255 24.815 25.515C24.815 26.4425 24.1325 27.9475 21.14 27.9475C18.34 27.9475 17.2375 26.6875 17.08 25.0775H14.07C14.245 28.0525 16.45 29.7325 19.075 30.275V33.25H23.17V30.3275C25.83 29.82 27.93 28.2975 27.9475 25.48C27.93 21.63 24.6225 20.3 21.5425 19.495Z" fill="#2CC84D"/>
</g>
<defs>
<clipPath id="clip0_75_504">
<rect width="42" height="42" fill="white"/>
</clipPath>
</defs>
</svg>
