<svg width="32" height="31" viewBox="0 0 32 31" fill="none" xmlns="http://www.w3.org/2000/svg">
<circle cx="15.8799" cy="15.1624" r="15.1624" fill="#2CC84D"/>
<path d="M15.5 8.98926C12.8614 8.98926 10.7273 11.3284 10.7273 14.2205H12.0909C12.0909 12.1579 13.6182 10.4839 15.5 10.4839C17.3818 10.4839 18.9091 12.1579 18.9091 14.2205H20.2727C20.2727 11.3284 18.1386 8.98926 15.5 8.98926ZM16.1818 15.9318C16.7818 15.6404 17.2045 14.9902 17.2045 14.2205C17.2045 13.1892 16.4409 12.3522 15.5 12.3522C14.5591 12.3522 13.7955 13.1892 13.7955 14.2205C13.7955 14.9827 14.2182 15.6404 14.8182 15.9318V18.3979L12.4932 20.9463L13.4545 22L15.5 19.7581L17.5455 22L18.5068 20.9463L16.1818 18.3979V15.9318ZM15.5 6C11.3614 6 8 9.68426 8 14.2205H9.36364C9.36364 10.5063 12.1114 7.49463 15.5 7.49463C18.8886 7.49463 21.6364 10.5063 21.6364 14.2205H23C23 9.68426 19.6386 6 15.5 6Z" fill="#181F2E"/>
</svg>
