<svg width="31" height="31" viewBox="0 0 31 31" fill="none" xmlns="http://www.w3.org/2000/svg">
<circle cx="15.2968" cy="15.1624" r="15.1624" fill="#DFE3E8"/>
<path d="M19.4003 15.1714L17.086 14.0143C18.0075 13.3 18.6003 12.1857 18.6003 10.9286C18.6003 8.76429 16.836 7 14.6718 7C12.5075 7 10.7432 8.76429 10.7432 10.9286C10.7432 12.45 11.6146 13.7714 12.886 14.4214V16.75C11.4003 16.4357 11.4503 16.4357 11.2718 16.4357C10.8932 16.4357 10.536 16.5857 10.2646 16.8571L9.26462 17.8714L12.9003 21.5071C13.2075 21.8214 13.636 22 14.0789 22H18.5789C19.2789 22 19.8718 21.5 19.986 20.8071L20.5575 17.4429C20.7146 16.5143 20.2503 15.6 19.4003 15.1714ZM12.1718 10.9286C12.1718 9.55 13.2932 8.42857 14.6718 8.42857C16.0503 8.42857 17.1718 9.55 17.1718 10.9286C17.1718 11.6071 16.9003 12.2214 16.4575 12.6714V10.9286C16.4575 9.94286 15.6575 9.14286 14.6718 9.14286C13.686 9.14286 12.886 9.94286 12.886 10.9286V12.6714C12.4432 12.2214 12.1718 11.6071 12.1718 10.9286ZM19.1503 17.2071L18.5789 20.5714H14.0789C14.0146 20.5714 13.9575 20.5429 13.9075 20.5L11.2789 17.8714L14.3146 18.5071V10.9286C14.3146 10.7286 14.4718 10.5714 14.6718 10.5714C14.8718 10.5714 15.0289 10.7286 15.0289 10.9286V15.2143H16.286L18.7575 16.45C19.0432 16.5929 19.2003 16.9 19.1503 17.2071Z" fill="#181F2E"/>
</svg>
