<svg width="148" height="26" viewBox="0 0 148 26" fill="none" xmlns="http://www.w3.org/2000/svg">
<g clip-path="url(#clip0_75_637)">
<path d="M59.0814 5.40421C57.7405 3.79594 55.9093 2.99144 53.5878 2.99072C51.4348 2.99072 49.6273 3.72038 48.1651 5.1797C46.7029 6.63901 45.9714 8.41566 45.9707 10.5097C45.9707 12.7339 46.6971 14.576 48.1498 16.0361C49.6026 17.4961 51.4338 18.2254 53.6434 18.2239C55.4172 18.2239 56.9745 17.7282 58.3154 16.7366C59.6563 15.745 60.5152 14.4174 60.8922 12.7537H57.2967C57.0068 13.4157 56.4975 13.9598 55.853 14.2961C55.1782 14.6693 54.4173 14.8627 53.6445 14.8574C52.5113 14.8574 51.5721 14.5253 50.8269 13.8611C50.0816 13.1969 49.6425 12.2852 49.5096 11.126H61.0916C61.0916 8.91973 60.4215 7.01248 59.0814 5.40421ZM49.7362 8.88195C49.9775 8.09093 50.4817 7.40395 51.1668 6.9326C51.8554 6.45552 52.6719 6.21698 53.6161 6.21698C54.5415 6.21698 55.3155 6.45084 55.938 6.91857C56.5605 7.3863 56.9851 8.04076 57.2117 8.88195H49.7362Z" fill="white"/>
<path d="M86.2932 14.3181C85.6185 14.6905 84.858 14.8835 84.0857 14.8783C82.9547 14.8783 82.0166 14.5466 81.2714 13.8832C80.5261 13.2197 80.0881 12.3087 79.9574 11.1502H91.5296C91.5296 8.9461 90.8599 7.0392 89.5204 5.42949C88.181 3.81978 86.3513 3.01745 84.0312 3.02248C81.8812 3.02248 80.0754 3.75106 78.6139 5.20822C77.1525 6.66538 76.4214 8.44059 76.4207 10.5339C76.4207 12.7574 77.147 14.5981 78.5998 16.0559C80.0525 17.5138 81.8819 18.2424 84.0879 18.2417C85.8617 18.2417 87.4179 17.7466 88.7566 16.7565C90.0954 15.7663 90.9536 14.4394 91.3313 12.7757H87.7357C87.446 13.4375 86.9371 13.9816 86.2932 14.3181ZM81.608 6.96005C82.2966 6.48368 83.1124 6.2455 84.0552 6.2455C84.9806 6.2455 85.7542 6.479 86.376 6.94601C86.9977 7.41302 87.4219 8.06713 87.6486 8.90832H80.184C80.4233 8.11839 80.9252 7.43181 81.608 6.96005Z" fill="white"/>
<path d="M74.9944 8.45352C74.9944 5.46689 72.4786 3.03613 69.3864 3.03613H62.6235V18.2661H65.5218V13.872H68.3416L71.1842 18.2661H74.6098L71.5035 13.4629C73.5998 12.6285 74.9944 10.6447 74.9944 8.45352ZM69.3864 11.0008H65.5218V5.90619H69.3864C70.8813 5.90619 72.0962 7.04925 72.0962 8.45352C72.0962 9.85779 70.8813 11.0008 69.3864 11.0008Z" fill="white"/>
<path d="M41.206 2.96396V4.75572C40.0835 3.82021 38.7146 3.22174 37.2603 3.03071C35.8061 2.83968 34.3271 3.06403 32.9972 3.67737C31.6673 4.29072 30.5419 5.26754 29.7533 6.49295C28.9647 7.71835 28.5458 9.14137 28.5458 10.5946C28.5458 12.0478 28.9647 13.4709 29.7533 14.6963C30.5419 15.9217 31.6673 16.8985 32.9972 17.5118C34.3271 18.1252 35.8061 18.3495 37.2603 18.1585C38.7146 17.9675 40.0835 17.369 41.206 16.4335V18.0126C41.2095 18.4409 41.0416 18.8531 40.7389 19.159C40.4363 19.4649 40.0236 19.6395 39.5913 19.6446H28.5519V23.0242H39.5913C40.9275 23.0184 42.207 22.488 43.149 21.5491C44.091 20.6103 44.6187 19.3396 44.6164 18.0159V2.96396H41.206ZM36.254 14.7961C35.4151 14.7961 34.595 14.5496 33.8975 14.0879C33.1999 13.6262 32.6563 12.9699 32.3352 12.2021C32.0142 11.4343 31.9302 10.5894 32.0938 9.77429C32.2575 8.95918 32.6615 8.21046 33.2547 7.6228C33.8479 7.03513 34.6037 6.63493 35.4265 6.4728C36.2493 6.31066 37.1021 6.39388 37.8772 6.71192C38.6523 7.02996 39.3147 7.56854 39.7808 8.25955C40.2469 8.95057 40.4956 9.76299 40.4956 10.5941C40.4936 11.7079 40.0461 12.7755 39.2511 13.5631C38.456 14.3507 37.3783 14.7941 36.254 14.7961Z" fill="white"/>
<path d="M21.9982 7.27081C21.3075 7.18878 20.5927 7.12401 19.9455 6.90814C17.3219 6.02737 15.5404 4.25827 14.4977 1.7185C13.9333 0.342295 12.7882 -0.23733 11.4785 0.0994351C10.9442 0.238728 10.4753 0.557668 10.1521 1.00168C9.82892 1.44568 9.67155 1.98715 9.70692 2.53343C9.77774 3.80925 10.6951 4.67275 12.1159 4.88539C12.8328 4.98416 13.5384 5.15079 14.2231 5.38298C16.7498 6.27562 18.4376 8.05444 19.4999 10.456C20.0261 11.6434 20.9926 12.2457 22.1584 12.0751C23.2905 11.9132 24.0978 11.0907 24.2395 9.9563C24.4138 8.55742 23.4702 7.44783 21.9982 7.27081Z" fill="url(#paint0_linear_75_637)"/>
<path d="M2.2619 7.27057C2.95269 7.18853 3.66308 7.12377 4.31464 6.9079C6.9383 6.02713 8.71973 4.25803 9.76244 1.71826C10.3268 0.338818 11.4709 -0.240807 12.7805 0.0905613C13.3167 0.229886 13.7872 0.549986 14.1109 0.995793C14.4347 1.4416 14.5915 1.98524 14.5543 2.53319C14.4835 3.80901 13.565 4.67251 12.1453 4.88515C11.4284 4.9838 10.7228 5.15042 10.0381 5.38274C7.5114 6.27538 5.82259 8.05419 4.76027 10.4558C4.23401 11.6431 3.26757 12.2454 2.10283 12.0749C1.56521 12.007 1.06667 11.7607 0.688526 11.3761C0.310384 10.9915 0.0749654 10.4913 0.0206779 9.95713C-0.153652 8.55718 0.789908 7.44758 2.2619 7.27057Z" fill="url(#paint1_linear_75_637)"/>
<path d="M2.2619 18.7292C2.95268 18.8112 3.66308 18.876 4.31463 19.0951C6.9383 19.9759 8.71973 21.745 9.76243 24.2858C10.3279 25.661 11.472 26.2406 12.7816 25.9049C13.3178 25.7656 13.7883 25.4455 14.112 24.9997C14.4358 24.5539 14.5925 24.0102 14.5554 23.4623C14.4846 22.1875 13.5661 21.3229 12.1464 21.1103C11.4294 21.0123 10.7234 20.8467 10.0381 20.616C7.5114 19.7222 5.82259 17.9434 4.76026 15.5429C4.23401 14.3556 3.26866 13.7576 2.10283 13.9238C1.56505 13.9917 1.06637 14.2382 0.688211 14.623C0.310048 15.0078 0.0747329 15.5083 0.0206779 16.0426C-0.153652 17.4426 0.789907 18.5544 2.2619 18.7292Z" fill="url(#paint2_linear_75_637)"/>
<path d="M21.9983 18.7291C21.3075 18.8111 20.5971 18.8759 19.9456 19.095C17.3219 19.9758 15.5405 21.7449 14.4978 24.2857C13.9334 25.6608 12.7882 26.2405 11.4786 25.9048C10.9425 25.7654 10.4721 25.4453 10.1486 24.9995C9.82502 24.5536 9.66847 24.01 9.70587 23.4622C9.7767 22.1874 10.6941 21.3228 12.1149 21.1102C12.8316 21.0113 13.5372 20.845 14.2221 20.6137C16.7488 19.72 18.4365 17.9411 19.4988 15.5406C20.0251 14.3533 20.9915 13.751 22.1574 13.9215C23.2894 14.0835 24.0968 14.9059 24.2384 16.0404C24.4139 17.4425 23.4703 18.5542 21.9983 18.7291Z" fill="url(#paint3_linear_75_637)"/>
<path d="M17.8438 12.9601C17.8451 13.3542 17.8005 13.7472 17.7109 14.1312C17.6178 14.536 17.4747 14.9279 17.2848 15.298C16.834 16.1818 16.1437 16.9239 15.2912 17.4411C14.4387 17.9583 13.4577 18.2302 12.4581 18.2263C9.48358 18.2263 7.07239 15.869 7.07239 12.9601C7.07239 10.0511 9.47923 7.69379 12.4581 7.69379C12.8833 7.69277 13.3071 7.74131 13.7209 7.83842C13.2022 8.06868 12.7617 8.4425 12.4525 8.91491C12.1432 9.38731 11.9783 9.93818 11.9776 10.5012C11.9749 10.5415 11.9749 10.5819 11.9776 10.6221C12.0136 11.3831 12.3454 12.1008 12.9035 12.6249C13.4616 13.149 14.2027 13.4389 14.9717 13.4339C15.2668 13.4339 15.5604 13.3917 15.8433 13.3087C16.2465 13.1887 16.6195 12.9856 16.9378 12.7127C17.256 12.4398 17.5125 12.1033 17.6902 11.7253C17.7918 12.1291 17.8434 12.5438 17.8438 12.9601Z" fill="url(#paint4_linear_75_637)"/>
<path d="M92.4219 4.46226C92.4219 4.77384 92.3493 5.00447 92.204 5.15414C92.058 5.30417 91.8368 5.37865 91.5383 5.37865C91.2397 5.37865 91.0131 5.30417 90.8671 5.15414C90.7211 5.00411 90.6492 4.7742 90.6492 4.46226C90.6492 4.15032 90.7222 3.92257 90.8671 3.77578C91.012 3.62898 91.2365 3.55127 91.5383 3.55127C91.8401 3.55127 92.058 3.62683 92.204 3.77578C92.35 3.92473 92.4219 4.15356 92.4219 4.46226ZM92.3206 4.46226C92.3206 4.18666 92.2563 3.98194 92.1277 3.8481C91.9991 3.71426 91.8023 3.64697 91.5372 3.64625C91.2691 3.64625 91.0708 3.71354 90.9423 3.8481C90.8137 3.98266 90.7491 4.18738 90.7483 4.46226C90.7483 4.74182 90.8126 4.94798 90.9423 5.0829C91.0719 5.21782 91.2691 5.28367 91.5372 5.28367C91.8052 5.28367 91.9991 5.21675 92.1277 5.0829C92.2563 4.94906 92.3206 4.74182 92.3206 4.46226ZM91.3051 4.58747V4.96525H91.1961V3.95496H91.5328C91.6387 3.94563 91.7447 3.97104 91.8346 4.02727C91.867 4.05718 91.892 4.09405 91.9076 4.13503C91.9233 4.17602 91.9293 4.22003 91.9251 4.26366C91.9301 4.3404 91.9086 4.41655 91.864 4.47953C91.8172 4.53503 91.7512 4.57121 91.6788 4.58099L91.9588 4.96525H91.8281L91.572 4.59179L91.3051 4.58747ZM91.8324 4.26366C91.8351 4.23308 91.8301 4.20233 91.8179 4.17411C91.8058 4.14588 91.7868 4.12104 91.7627 4.10175C91.6971 4.0628 91.6211 4.04472 91.5448 4.04994H91.3051V4.5022H91.5415C91.6186 4.50807 91.6954 4.4879 91.7594 4.44499C91.7843 4.42215 91.8035 4.39386 91.8154 4.36238C91.8274 4.3309 91.8317 4.29709 91.8281 4.26366H91.8324Z" fill="white"/>
<path d="M103.314 15.7692V17.7682C103.005 17.9034 102.58 18.0097 102.039 18.0869C101.518 18.1835 101.015 18.2318 100.532 18.2318C98.7942 18.2318 97.5485 17.8455 96.7952 17.0729C96.0613 16.3004 95.6943 14.9677 95.6943 13.0749V5.71625H93.5505V3.68827H95.7233L96.0999 0.211742H98.0699V3.68827H103.169V5.71625H98.0699V12.988C98.0699 14.1662 98.2824 14.9677 98.7073 15.3926C99.1515 15.8175 99.9241 16.03 101.025 16.03C101.373 16.03 101.769 16.001 102.213 15.9431C102.676 15.8851 103.043 15.8272 103.314 15.7692ZM114.938 15.2188V17.2178C114.436 17.4882 113.692 17.7296 112.707 17.9421C111.741 18.1352 110.756 18.2318 109.752 18.2318C107.512 18.2318 105.909 17.6523 104.943 16.4935C103.977 15.3347 103.494 13.4226 103.494 10.7572C103.494 8.18845 103.996 6.32464 105.001 5.1658C106.005 3.98764 107.608 3.39856 109.81 3.39856C111.857 3.39856 113.325 3.8621 114.214 4.78918C115.102 5.69694 115.546 7.22275 115.546 9.36661C115.546 9.75289 115.537 10.1102 115.517 10.4385C115.498 10.7669 115.459 11.1628 115.401 11.6264H105.899C105.918 13.2101 106.237 14.34 106.855 15.016C107.492 15.692 108.584 16.03 110.129 16.03C110.959 16.03 111.828 15.9527 112.736 15.7982C113.644 15.6437 114.378 15.4505 114.938 15.2188ZM113.373 9.04793C113.354 7.7732 113.074 6.8751 112.533 6.35362C111.993 5.81282 111.085 5.54243 109.81 5.54243C108.381 5.54243 107.367 5.85145 106.768 6.4695C106.189 7.06824 105.899 8.13051 105.899 9.65632H113.345C113.345 9.61769 113.345 9.53078 113.345 9.39558C113.364 9.24107 113.373 9.12518 113.373 9.04793ZM127.31 15.1608V17.1598C126.827 17.4689 126.103 17.7296 125.137 17.9421C124.191 18.1352 123.196 18.2318 122.153 18.2318C120.125 18.2318 118.696 17.6813 117.865 16.5804C117.054 15.4795 116.649 13.5578 116.649 10.8152C116.649 8.13051 117.18 6.22807 118.242 5.10786C119.304 3.96833 121.11 3.39856 123.66 3.39856C124.22 3.39856 124.722 3.41788 125.166 3.4565C125.63 3.47582 126.219 3.53376 126.933 3.63033V5.74522C126.219 5.64865 125.63 5.59071 125.166 5.5714C124.722 5.55208 124.22 5.54243 123.66 5.54243C121.844 5.54243 120.618 5.91905 119.98 6.6723C119.343 7.40623 119.024 8.78719 119.024 10.8152C119.024 12.8431 119.275 14.2241 119.777 14.958C120.28 15.6727 121.245 16.03 122.675 16.03C123.466 16.03 124.287 15.9527 125.137 15.7982C125.987 15.6244 126.711 15.4119 127.31 15.1608ZM131.118 18H128.743V-1.26578H131.118V4.84712C131.987 4.36427 132.847 4.00696 133.697 3.77519C134.566 3.5241 135.425 3.39856 136.275 3.39856C137.859 3.39856 139.047 3.7945 139.839 4.58638C140.65 5.37826 141.055 6.54676 141.055 8.09188V18H138.68V8.38159C138.68 7.39658 138.419 6.68196 137.898 6.23773C137.395 5.77419 136.603 5.54243 135.522 5.54243C134.807 5.54243 134.064 5.639 133.291 5.83214C132.538 6.02528 131.814 6.29567 131.118 6.64333V18Z" fill="#7789B0"/>
</g>
<defs>
<linearGradient id="paint0_linear_75_637" x1="16.9811" y1="0.00585937" x2="16.9811" y2="12.1036" gradientUnits="userSpaceOnUse">
<stop stop-color="#2CC84D"/>
<stop offset="1" stop-color="#3EBBFF"/>
</linearGradient>
<linearGradient id="paint1_linear_75_637" x1="7.27984" y1="-0.000518799" x2="7.27984" y2="12.1033" gradientUnits="userSpaceOnUse">
<stop stop-color="#2CC84D"/>
<stop offset="1" stop-color="#3EBBFF"/>
</linearGradient>
<linearGradient id="paint2_linear_75_637" x1="7.28038" y1="13.8965" x2="7.28038" y2="25.998" gradientUnits="userSpaceOnUse">
<stop stop-color="#2CC84D"/>
<stop offset="1" stop-color="#3EBBFF"/>
</linearGradient>
<linearGradient id="paint3_linear_75_637" x1="16.9799" y1="13.8931" x2="16.9799" y2="25.9979" gradientUnits="userSpaceOnUse">
<stop stop-color="#2CC84D"/>
<stop offset="1" stop-color="#3EBBFF"/>
</linearGradient>
<linearGradient id="paint4_linear_75_637" x1="12.4581" y1="7.69377" x2="12.4581" y2="18.2264" gradientUnits="userSpaceOnUse">
<stop stop-color="#2CC84D"/>
<stop offset="1" stop-color="#3EBBFF"/>
</linearGradient>
<clipPath id="clip0_75_637">
<rect width="148" height="26" fill="white"/>
</clipPath>
</defs>
</svg>
