<svg width="148" height="26" viewBox="0 0 148 26" fill="none" xmlns="http://www.w3.org/2000/svg">
<g clip-path="url(#clip0_75_596)">
<path d="M59.0814 5.40421C57.7405 3.79594 55.9093 2.99144 53.5878 2.99072C51.4348 2.99072 49.6273 3.72038 48.1651 5.1797C46.7029 6.63901 45.9714 8.41566 45.9707 10.5097C45.9707 12.7339 46.6971 14.576 48.1498 16.0361C49.6026 17.4961 51.4338 18.2254 53.6434 18.2239C55.4172 18.2239 56.9745 17.7282 58.3154 16.7366C59.6563 15.745 60.5152 14.4174 60.8922 12.7537H57.2967C57.0068 13.4157 56.4975 13.9598 55.853 14.2961C55.1782 14.6693 54.4173 14.8627 53.6445 14.8574C52.5113 14.8574 51.5721 14.5253 50.8269 13.8611C50.0816 13.1969 49.6425 12.2852 49.5096 11.126H61.0916C61.0916 8.91973 60.4215 7.01248 59.0814 5.40421ZM49.7362 8.88195C49.9775 8.09093 50.4817 7.40395 51.1668 6.9326C51.8554 6.45552 52.6719 6.21698 53.6161 6.21698C54.5415 6.21698 55.3155 6.45084 55.938 6.91857C56.5605 7.3863 56.9851 8.04076 57.2117 8.88195H49.7362Z" fill="white"/>
<path d="M86.2932 14.3181C85.6185 14.6905 84.858 14.8835 84.0857 14.8783C82.9547 14.8783 82.0166 14.5466 81.2714 13.8832C80.5261 13.2197 80.0881 12.3087 79.9574 11.1502H91.5296C91.5296 8.9461 90.8599 7.0392 89.5204 5.42949C88.181 3.81978 86.3513 3.01745 84.0312 3.02248C81.8812 3.02248 80.0754 3.75106 78.6139 5.20822C77.1525 6.66538 76.4214 8.44059 76.4207 10.5339C76.4207 12.7574 77.147 14.5981 78.5998 16.0559C80.0525 17.5138 81.8819 18.2424 84.0879 18.2417C85.8617 18.2417 87.4179 17.7466 88.7566 16.7565C90.0954 15.7663 90.9536 14.4394 91.3313 12.7757H87.7357C87.446 13.4375 86.9371 13.9816 86.2932 14.3181ZM81.608 6.96005C82.2966 6.48368 83.1124 6.2455 84.0552 6.2455C84.9806 6.2455 85.7542 6.479 86.376 6.94601C86.9977 7.41302 87.4219 8.06713 87.6486 8.90832H80.184C80.4233 8.11839 80.9252 7.43181 81.608 6.96005Z" fill="white"/>
<path d="M74.9944 8.45352C74.9944 5.46689 72.4786 3.03613 69.3864 3.03613H62.6235V18.2661H65.5218V13.872H68.3416L71.1842 18.2661H74.6098L71.5035 13.4629C73.5998 12.6285 74.9944 10.6447 74.9944 8.45352ZM69.3864 11.0008H65.5218V5.90619H69.3864C70.8813 5.90619 72.0962 7.04925 72.0962 8.45352C72.0962 9.85779 70.8813 11.0008 69.3864 11.0008Z" fill="white"/>
<path d="M41.2062 2.96396V4.75572C40.0836 3.82021 38.7147 3.22174 37.2605 3.03071C35.8062 2.83968 34.3272 3.06403 32.9973 3.67737C31.6674 4.29072 30.542 5.26754 29.7534 6.49295C28.9648 7.71835 28.5459 9.14137 28.5459 10.5946C28.5459 12.0478 28.9648 13.4709 29.7534 14.6963C30.542 15.9217 31.6674 16.8985 32.9973 17.5118C34.3272 18.1252 35.8062 18.3495 37.2605 18.1585C38.7147 17.9675 40.0836 17.369 41.2062 16.4335V18.0126C41.2096 18.4409 41.0417 18.8531 40.739 19.159C40.4364 19.4649 40.0237 19.6395 39.5914 19.6446H28.552V23.0242H39.5914C40.9277 23.0184 42.2071 22.488 43.1491 21.5491C44.0911 20.6103 44.6188 19.3396 44.6165 18.0159V2.96396H41.2062ZM36.2541 14.7961C35.4152 14.7961 34.5951 14.5496 33.8976 14.0879C33.2 13.6262 32.6564 12.9699 32.3353 12.2021C32.0143 11.4343 31.9303 10.5894 32.094 9.77429C32.2576 8.95918 32.6616 8.21046 33.2548 7.6228C33.848 7.03513 34.6038 6.63493 35.4266 6.4728C36.2494 6.31066 37.1023 6.39388 37.8773 6.71192C38.6524 7.02996 39.3148 7.56854 39.7809 8.25955C40.247 8.95057 40.4958 9.76299 40.4958 10.5941C40.4938 11.7079 40.0462 12.7755 39.2512 13.5631C38.4562 14.3507 37.3784 14.7941 36.2541 14.7961Z" fill="white"/>
<path d="M21.9981 7.27081C21.3073 7.18878 20.5926 7.12401 19.9454 6.90814C17.3217 6.02737 15.5403 4.25827 14.4976 1.7185C13.9332 0.342295 12.7881 -0.23733 11.4784 0.0994351C10.944 0.238728 10.4752 0.557668 10.152 1.00168C9.82879 1.44568 9.67142 1.98715 9.70679 2.53343C9.77761 3.80925 10.695 4.67275 12.1158 4.88539C12.8327 4.98416 13.5383 5.15079 14.223 5.38298C16.7497 6.27562 18.4374 8.05444 19.4998 10.456C20.026 11.6434 20.9925 12.2457 22.1583 12.0751C23.2903 11.9132 24.0977 11.0907 24.2393 9.9563C24.4137 8.55742 23.4701 7.44783 21.9981 7.27081Z" fill="#3EBBFF"/>
<path d="M2.2619 7.27057C2.95269 7.18853 3.66308 7.12377 4.31464 6.9079C6.9383 6.02713 8.71973 4.25803 9.76244 1.71826C10.3268 0.338818 11.4709 -0.240807 12.7805 0.0905613C13.3167 0.229886 13.7872 0.549986 14.1109 0.995793C14.4347 1.4416 14.5915 1.98524 14.5543 2.53319C14.4835 3.80901 13.565 4.67251 12.1453 4.88515C11.4284 4.9838 10.7228 5.15042 10.0381 5.38274C7.5114 6.27538 5.82259 8.05419 4.76027 10.4558C4.23401 11.6431 3.26757 12.2454 2.10283 12.0749C1.56521 12.007 1.06667 11.7607 0.688526 11.3761C0.310384 10.9915 0.0749654 10.4913 0.0206779 9.95713C-0.153652 8.55718 0.789908 7.44758 2.2619 7.27057Z" fill="#3EBBFF"/>
<path d="M2.2619 18.7292C2.95268 18.8112 3.66308 18.876 4.31463 19.0951C6.9383 19.9759 8.71973 21.745 9.76243 24.2858C10.3279 25.661 11.472 26.2406 12.7816 25.9049C13.3178 25.7656 13.7883 25.4455 14.112 24.9997C14.4358 24.5539 14.5925 24.0102 14.5554 23.4623C14.4846 22.1875 13.5661 21.3229 12.1464 21.1103C11.4294 21.0123 10.7234 20.8467 10.0381 20.616C7.5114 19.7222 5.82259 17.9434 4.76026 15.5429C4.23401 14.3556 3.26866 13.7576 2.10283 13.9238C1.56505 13.9917 1.06637 14.2382 0.688211 14.623C0.310048 15.0078 0.0747329 15.5083 0.0206779 16.0426C-0.153652 17.4426 0.789907 18.5544 2.2619 18.7292Z" fill="#3EBBFF"/>
<path d="M21.9983 18.7291C21.3075 18.8111 20.5971 18.8759 19.9456 19.095C17.3219 19.9758 15.5405 21.7449 14.4978 24.2857C13.9334 25.6608 12.7882 26.2405 11.4786 25.9048C10.9425 25.7654 10.4721 25.4453 10.1486 24.9995C9.82502 24.5536 9.66847 24.01 9.70587 23.4622C9.7767 22.1874 10.6941 21.3228 12.1149 21.1102C12.8316 21.0113 13.5372 20.845 14.2221 20.6137C16.7488 19.72 18.4365 17.9411 19.4988 15.5406C20.0251 14.3533 20.9915 13.751 22.1574 13.9215C23.2894 14.0835 24.0968 14.9059 24.2384 16.0404C24.4139 17.4425 23.4703 18.5542 21.9983 18.7291Z" fill="#3EBBFF"/>
<path d="M17.8437 12.9601C17.8449 13.3542 17.8003 13.7472 17.7107 14.1312C17.6177 14.536 17.4746 14.9279 17.2847 15.298C16.8339 16.1818 16.1435 16.9239 15.2911 17.4411C14.4386 17.9583 13.4576 18.2302 12.458 18.2263C9.48346 18.2263 7.07227 15.869 7.07227 12.9601C7.07227 10.0511 9.4791 7.69379 12.458 7.69379C12.8832 7.69277 13.307 7.74131 13.7208 7.83842C13.2021 8.06868 12.7616 8.4425 12.4523 8.91491C12.1431 9.38731 11.9782 9.93818 11.9775 10.5012C11.9748 10.5415 11.9748 10.5819 11.9775 10.6221C12.0135 11.3831 12.3452 12.1008 12.9033 12.6249C13.4614 13.149 14.2026 13.4389 14.9716 13.4339C15.2667 13.4339 15.5603 13.3917 15.8432 13.3087C16.2464 13.1887 16.6193 12.9856 16.9376 12.7127C17.2559 12.4398 17.5123 12.1033 17.69 11.7253C17.7917 12.1291 17.8433 12.5438 17.8437 12.9601Z" fill="#3EBBFF"/>
<path d="M92.4219 4.46226C92.4219 4.77384 92.3493 5.00447 92.204 5.15414C92.058 5.30417 91.8368 5.37865 91.5383 5.37865C91.2397 5.37865 91.0131 5.30417 90.8671 5.15414C90.7211 5.00411 90.6492 4.7742 90.6492 4.46226C90.6492 4.15032 90.7222 3.92257 90.8671 3.77578C91.012 3.62898 91.2365 3.55127 91.5383 3.55127C91.8401 3.55127 92.058 3.62683 92.204 3.77578C92.35 3.92473 92.4219 4.15356 92.4219 4.46226ZM92.3206 4.46226C92.3206 4.18666 92.2563 3.98194 92.1277 3.8481C91.9991 3.71426 91.8023 3.64697 91.5372 3.64625C91.2691 3.64625 91.0708 3.71354 90.9423 3.8481C90.8137 3.98266 90.7491 4.18738 90.7483 4.46226C90.7483 4.74182 90.8126 4.94798 90.9423 5.0829C91.0719 5.21782 91.2691 5.28367 91.5372 5.28367C91.8052 5.28367 91.9991 5.21675 92.1277 5.0829C92.2563 4.94906 92.3206 4.74182 92.3206 4.46226ZM91.3051 4.58747V4.96525H91.1961V3.95496H91.5328C91.6387 3.94563 91.7447 3.97104 91.8346 4.02727C91.867 4.05718 91.892 4.09405 91.9076 4.13503C91.9233 4.17602 91.9293 4.22003 91.9251 4.26366C91.9301 4.3404 91.9086 4.41655 91.864 4.47953C91.8172 4.53503 91.7512 4.57121 91.6788 4.58099L91.9588 4.96525H91.8281L91.572 4.59179L91.3051 4.58747ZM91.8324 4.26366C91.8351 4.23308 91.8301 4.20233 91.8179 4.17411C91.8058 4.14588 91.7868 4.12104 91.7627 4.10175C91.6971 4.0628 91.6211 4.04472 91.5448 4.04994H91.3051V4.5022H91.5415C91.6186 4.50807 91.6954 4.4879 91.7594 4.44499C91.7843 4.42215 91.8035 4.39386 91.8154 4.36238C91.8274 4.3309 91.8317 4.29709 91.8281 4.26366H91.8324Z" fill="white"/>
<path d="M97.2877 18H94.9121V3.68827H97.0849L97.2008 4.78918H97.2877C98.1375 4.30632 98.9101 3.95867 99.6054 3.74622C100.301 3.51445 100.996 3.39856 101.691 3.39856C102.503 3.39856 103.198 3.5241 103.777 3.77519C104.357 4.02627 104.811 4.40289 105.139 4.90506H105.226C105.998 4.42221 106.81 4.05524 107.659 3.80416C108.529 3.53376 109.398 3.39856 110.267 3.39856C111.638 3.39856 112.671 3.76553 113.367 4.49947C114.081 5.21409 114.439 6.27636 114.439 7.68629V18H112.063V7.976C112.063 7.14549 111.841 6.5371 111.397 6.15082C110.952 5.74522 110.247 5.54243 109.282 5.54243C108.741 5.54243 108.171 5.62934 107.572 5.80316C106.974 5.95768 106.375 6.18945 105.776 6.49847C105.815 6.69161 105.834 6.88475 105.834 7.07789C105.854 7.27103 105.863 7.47383 105.863 7.68629V18H103.488V7.976C103.488 7.14549 103.265 6.5371 102.821 6.15082C102.377 5.74522 101.672 5.54243 100.706 5.54243C100.223 5.54243 99.7116 5.62934 99.1708 5.80316C98.6301 5.95768 98.0023 6.22807 97.2877 6.61436V18ZM120.081 18.2318C118.613 18.2318 117.532 17.8841 116.836 17.1888C116.16 16.4742 115.822 15.354 115.822 13.8282C115.822 12.283 116.237 11.1918 117.068 10.5544C117.898 9.89775 119.308 9.56941 121.298 9.56941C121.954 9.56941 122.601 9.59838 123.239 9.65632C123.876 9.71426 124.475 9.80118 125.035 9.91706V8.52645C125.035 7.46417 124.765 6.70127 124.224 6.23773C123.683 5.77419 122.814 5.54243 121.616 5.54243C120.728 5.54243 119.946 5.58105 119.27 5.65831C118.594 5.71625 117.918 5.82248 117.242 5.97699V3.92004C118.014 3.7269 118.797 3.5917 119.588 3.51445C120.4 3.43719 121.317 3.39856 122.341 3.39856C124.06 3.39856 125.334 3.80416 126.165 4.61535C126.995 5.40723 127.411 6.64333 127.411 8.32365V18H125.238L125.122 16.6673H125.064C124.485 17.1309 123.731 17.5075 122.804 17.7972C121.896 18.0869 120.989 18.2318 120.081 18.2318ZM121.558 11.5105C120.245 11.5105 119.328 11.6746 118.806 12.003C118.304 12.312 118.053 12.8721 118.053 13.6833C118.053 14.5331 118.265 15.1512 118.69 15.5375C119.115 15.9044 119.811 16.0879 120.776 16.0879C121.53 16.0879 122.302 15.972 123.094 15.7403C123.886 15.5085 124.533 15.2188 125.035 14.8711V11.8002C124.398 11.7036 123.799 11.636 123.239 11.5974C122.698 11.5394 122.138 11.5105 121.558 11.5105ZM132.196 22.4036H129.82V3.68827H131.877L132.022 4.963H132.109C132.707 4.46084 133.422 4.07456 134.253 3.80416C135.083 3.53376 135.972 3.39856 136.918 3.39856C138.869 3.39856 140.259 3.97799 141.09 5.13683C141.94 6.29567 142.364 8.18845 142.364 10.8152C142.364 13.4419 141.853 15.3347 140.829 16.4935C139.805 17.6523 138.096 18.2318 135.701 18.2318C134.987 18.2318 134.33 18.1835 133.731 18.0869C133.152 17.9903 132.64 17.8455 132.196 17.6523V22.4036ZM139.989 10.8152C139.989 8.84513 139.709 7.47383 139.149 6.70127C138.608 5.92871 137.584 5.54243 136.078 5.54243C135.363 5.54243 134.677 5.64865 134.021 5.86111C133.383 6.05425 132.775 6.34396 132.196 6.73024V15.4505C132.678 15.6437 133.171 15.7885 133.673 15.8851C134.195 15.9817 134.774 16.03 135.411 16.03C137.208 16.03 138.415 15.663 139.033 14.9291C139.67 14.1758 139.989 12.8045 139.989 10.8152Z" fill="#7789B0"/>
</g>
<defs>
<clipPath id="clip0_75_596">
<rect width="148" height="26" fill="white"/>
</clipPath>
</defs>
</svg>
