<svg width="148" height="26" viewBox="0 0 148 26" fill="none" xmlns="http://www.w3.org/2000/svg">
<g clip-path="url(#clip0_77_273)">
<path d="M59.0814 5.40421C57.7405 3.79594 55.9093 2.99144 53.5878 2.99072C51.4348 2.99072 49.6273 3.72038 48.1651 5.1797C46.7029 6.63901 45.9714 8.41566 45.9707 10.5097C45.9707 12.7339 46.6971 14.576 48.1498 16.0361C49.6026 17.4961 51.4338 18.2254 53.6434 18.2239C55.4172 18.2239 56.9745 17.7282 58.3154 16.7366C59.6563 15.745 60.5152 14.4174 60.8922 12.7537H57.2967C57.0068 13.4157 56.4975 13.9598 55.853 14.2961C55.1782 14.6693 54.4173 14.8627 53.6445 14.8574C52.5113 14.8574 51.5721 14.5253 50.8269 13.8611C50.0816 13.1969 49.6425 12.2852 49.5096 11.126H61.0916C61.0916 8.91973 60.4215 7.01248 59.0814 5.40421ZM49.7362 8.88195C49.9775 8.09093 50.4817 7.40395 51.1668 6.9326C51.8554 6.45552 52.6719 6.21698 53.6161 6.21698C54.5415 6.21698 55.3155 6.45084 55.938 6.91857C56.5605 7.3863 56.9851 8.04076 57.2117 8.88195H49.7362Z" fill="white"/>
<path d="M86.2932 14.3181C85.6185 14.6905 84.858 14.8835 84.0857 14.8783C82.9547 14.8783 82.0166 14.5466 81.2714 13.8832C80.5261 13.2197 80.0881 12.3087 79.9574 11.1502H91.5296C91.5296 8.9461 90.8599 7.0392 89.5204 5.42949C88.181 3.81978 86.3513 3.01745 84.0312 3.02248C81.8812 3.02248 80.0754 3.75106 78.6139 5.20822C77.1525 6.66538 76.4214 8.44059 76.4207 10.5339C76.4207 12.7574 77.147 14.5981 78.5998 16.0559C80.0525 17.5138 81.8819 18.2424 84.0879 18.2417C85.8617 18.2417 87.4179 17.7466 88.7566 16.7565C90.0954 15.7663 90.9536 14.4394 91.3313 12.7757H87.7357C87.446 13.4375 86.9371 13.9816 86.2932 14.3181ZM81.608 6.96005C82.2966 6.48368 83.1124 6.2455 84.0552 6.2455C84.9806 6.2455 85.7542 6.479 86.376 6.94601C86.9977 7.41302 87.4219 8.06713 87.6486 8.90832H80.184C80.4233 8.11839 80.9252 7.43181 81.608 6.96005Z" fill="white"/>
<path d="M74.9944 8.45352C74.9944 5.46689 72.4786 3.03613 69.3864 3.03613H62.6235V18.2661H65.5218V13.872H68.3416L71.1842 18.2661H74.6098L71.5035 13.4629C73.5998 12.6285 74.9944 10.6447 74.9944 8.45352ZM69.3864 11.0008H65.5218V5.90619H69.3864C70.8813 5.90619 72.0962 7.04925 72.0962 8.45352C72.0962 9.85779 70.8813 11.0008 69.3864 11.0008Z" fill="white"/>
<path d="M41.206 2.96396V4.75572C40.0835 3.82021 38.7146 3.22174 37.2603 3.03071C35.8061 2.83968 34.3271 3.06403 32.9972 3.67737C31.6673 4.29072 30.5419 5.26754 29.7533 6.49295C28.9647 7.71835 28.5458 9.14137 28.5458 10.5946C28.5458 12.0478 28.9647 13.4709 29.7533 14.6963C30.5419 15.9217 31.6673 16.8985 32.9972 17.5118C34.3271 18.1252 35.8061 18.3495 37.2603 18.1585C38.7146 17.9675 40.0835 17.369 41.206 16.4335V18.0126C41.2095 18.4409 41.0416 18.8531 40.7389 19.159C40.4363 19.4649 40.0236 19.6395 39.5913 19.6446H28.5519V23.0242H39.5913C40.9275 23.0184 42.207 22.488 43.149 21.5491C44.091 20.6103 44.6187 19.3396 44.6164 18.0159V2.96396H41.206ZM36.254 14.7961C35.4151 14.7961 34.595 14.5496 33.8975 14.0879C33.1999 13.6262 32.6563 12.9699 32.3352 12.2021C32.0142 11.4343 31.9302 10.5894 32.0938 9.77429C32.2575 8.95918 32.6615 8.21046 33.2547 7.6228C33.8479 7.03513 34.6037 6.63493 35.4265 6.4728C36.2493 6.31066 37.1021 6.39388 37.8772 6.71192C38.6523 7.02996 39.3147 7.56854 39.7808 8.25955C40.2469 8.95057 40.4956 9.76299 40.4956 10.5941C40.4936 11.7079 40.0461 12.7755 39.2511 13.5631C38.456 14.3507 37.3783 14.7941 36.254 14.7961Z" fill="white"/>
<path d="M21.9982 7.27081C21.3075 7.18878 20.5927 7.12401 19.9455 6.90814C17.3219 6.02737 15.5404 4.25827 14.4977 1.7185C13.9333 0.342295 12.7882 -0.23733 11.4785 0.0994351C10.9442 0.238728 10.4753 0.557668 10.1521 1.00168C9.82892 1.44568 9.67155 1.98715 9.70692 2.53343C9.77774 3.80925 10.6951 4.67275 12.1159 4.88539C12.8328 4.98416 13.5384 5.15079 14.2231 5.38298C16.7498 6.27562 18.4376 8.05444 19.4999 10.456C20.0261 11.6434 20.9926 12.2457 22.1584 12.0751C23.2905 11.9132 24.0978 11.0907 24.2395 9.9563C24.4138 8.55742 23.4702 7.44783 21.9982 7.27081Z" fill="#7789B0"/>
<path d="M2.2619 7.27057C2.95269 7.18853 3.66308 7.12377 4.31464 6.9079C6.9383 6.02713 8.71973 4.25803 9.76244 1.71826C10.3268 0.338818 11.4709 -0.240807 12.7805 0.0905613C13.3167 0.229886 13.7872 0.549986 14.1109 0.995793C14.4347 1.4416 14.5915 1.98524 14.5543 2.53319C14.4835 3.80901 13.565 4.67251 12.1453 4.88515C11.4284 4.9838 10.7228 5.15042 10.0381 5.38274C7.5114 6.27538 5.82259 8.05419 4.76027 10.4558C4.23401 11.6431 3.26757 12.2454 2.10283 12.0749C1.56521 12.007 1.06667 11.7607 0.688526 11.3761C0.310384 10.9915 0.0749654 10.4913 0.0206779 9.95713C-0.153652 8.55718 0.789908 7.44758 2.2619 7.27057Z" fill="#7789B0"/>
<path d="M2.2619 18.7292C2.95268 18.8112 3.66308 18.876 4.31463 19.0951C6.9383 19.9759 8.71973 21.745 9.76243 24.2858C10.3279 25.661 11.472 26.2406 12.7816 25.9049C13.3178 25.7656 13.7883 25.4455 14.112 24.9997C14.4358 24.5539 14.5925 24.0102 14.5554 23.4623C14.4846 22.1875 13.5661 21.3229 12.1464 21.1103C11.4294 21.0123 10.7234 20.8467 10.0381 20.616C7.5114 19.7222 5.82259 17.9434 4.76026 15.5429C4.23401 14.3556 3.26866 13.7576 2.10283 13.9238C1.56505 13.9917 1.06637 14.2382 0.688211 14.623C0.310048 15.0078 0.0747329 15.5083 0.0206779 16.0426C-0.153652 17.4426 0.789907 18.5544 2.2619 18.7292Z" fill="#7789B0"/>
<path d="M21.9983 18.7291C21.3075 18.8111 20.5971 18.8759 19.9456 19.095C17.3219 19.9758 15.5405 21.7449 14.4978 24.2857C13.9334 25.6608 12.7882 26.2405 11.4786 25.9048C10.9425 25.7654 10.4721 25.4453 10.1486 24.9995C9.82502 24.5536 9.66847 24.01 9.70587 23.4622C9.7767 22.1874 10.6941 21.3228 12.1149 21.1102C12.8316 21.0113 13.5372 20.845 14.2221 20.6137C16.7488 19.72 18.4365 17.9411 19.4988 15.5406C20.0251 14.3533 20.9915 13.751 22.1574 13.9215C23.2894 14.0835 24.0968 14.9059 24.2384 16.0404C24.4139 17.4425 23.4703 18.5542 21.9983 18.7291Z" fill="#7789B0"/>
<path d="M17.8438 12.9601C17.8451 13.3542 17.8005 13.7472 17.7109 14.1312C17.6178 14.536 17.4747 14.9279 17.2848 15.298C16.834 16.1818 16.1437 16.9239 15.2912 17.4411C14.4387 17.9583 13.4577 18.2302 12.4581 18.2263C9.48358 18.2263 7.07239 15.869 7.07239 12.9601C7.07239 10.0511 9.47923 7.69379 12.4581 7.69379C12.8833 7.69277 13.3071 7.74131 13.7209 7.83842C13.2022 8.06868 12.7617 8.4425 12.4525 8.91491C12.1432 9.38731 11.9783 9.93818 11.9776 10.5012C11.9749 10.5415 11.9749 10.5819 11.9776 10.6221C12.0136 11.3831 12.3454 12.1008 12.9035 12.6249C13.4616 13.149 14.2027 13.4389 14.9717 13.4339C15.2668 13.4339 15.5604 13.3917 15.8433 13.3087C16.2465 13.1887 16.6195 12.9856 16.9378 12.7127C17.256 12.4398 17.5125 12.1033 17.6902 11.7253C17.7918 12.1291 17.8434 12.5438 17.8438 12.9601Z" fill="#7789B0"/>
<path d="M92.4219 4.46226C92.4219 4.77384 92.3493 5.00447 92.204 5.15414C92.058 5.30417 91.8368 5.37865 91.5383 5.37865C91.2397 5.37865 91.0131 5.30417 90.8671 5.15414C90.7211 5.00411 90.6492 4.7742 90.6492 4.46226C90.6492 4.15032 90.7222 3.92257 90.8671 3.77578C91.012 3.62898 91.2365 3.55127 91.5383 3.55127C91.8401 3.55127 92.058 3.62683 92.204 3.77578C92.35 3.92473 92.4219 4.15356 92.4219 4.46226ZM92.3206 4.46226C92.3206 4.18666 92.2563 3.98194 92.1277 3.8481C91.9991 3.71426 91.8023 3.64697 91.5372 3.64625C91.2691 3.64625 91.0708 3.71354 90.9423 3.8481C90.8137 3.98266 90.7491 4.18738 90.7483 4.46226C90.7483 4.74182 90.8126 4.94798 90.9423 5.0829C91.0719 5.21782 91.2691 5.28367 91.5372 5.28367C91.8052 5.28367 91.9991 5.21675 92.1277 5.0829C92.2563 4.94906 92.3206 4.74182 92.3206 4.46226ZM91.3051 4.58747V4.96525H91.1961V3.95496H91.5328C91.6387 3.94563 91.7447 3.97104 91.8346 4.02727C91.867 4.05718 91.892 4.09405 91.9076 4.13503C91.9233 4.17602 91.9293 4.22003 91.9251 4.26366C91.9301 4.3404 91.9086 4.41655 91.864 4.47953C91.8172 4.53503 91.7512 4.57121 91.6788 4.58099L91.9588 4.96525H91.8281L91.572 4.59179L91.3051 4.58747ZM91.8324 4.26366C91.8351 4.23308 91.8301 4.20233 91.8179 4.17411C91.8058 4.14588 91.7868 4.12104 91.7627 4.10175C91.6971 4.0628 91.6211 4.04472 91.5448 4.04994H91.3051V4.5022H91.5415C91.6186 4.50807 91.6954 4.4879 91.7594 4.44499C91.7843 4.42215 91.8035 4.39386 91.8154 4.36238C91.8274 4.3309 91.8317 4.29709 91.8281 4.26366H91.8324Z" fill="white"/>
<path d="M101.981 3.39856C103.932 3.39856 105.322 3.97799 106.153 5.13683C107.003 6.27636 107.428 8.14982 107.428 10.7572C107.428 13.4226 106.906 15.3347 105.863 16.4935C104.82 17.6523 103.072 18.2318 100.619 18.2318C99.5185 18.2318 98.4852 18.1642 97.5195 18.029C96.5538 17.9131 95.675 17.7296 94.8831 17.4785V-1.26578H97.2588V4.67329C97.9347 4.2677 98.6783 3.95867 99.4895 3.74622C100.301 3.51445 101.131 3.39856 101.981 3.39856ZM105.052 10.7572C105.052 8.8065 104.772 7.45452 104.212 6.70127C103.671 5.92871 102.647 5.54243 101.141 5.54243C100.446 5.54243 99.7599 5.639 99.0839 5.83214C98.4079 6.00596 97.7995 6.25705 97.2588 6.58538V15.6533C97.6837 15.7692 98.1665 15.8658 98.7073 15.9431C99.2481 16.001 99.8372 16.03 100.475 16.03C102.271 16.03 103.478 15.6533 104.096 14.9001C104.733 14.1468 105.052 12.7659 105.052 10.7572ZM121.827 10.8152C121.827 13.5191 121.325 15.4312 120.321 16.5514C119.336 17.6717 117.636 18.2318 115.222 18.2318C112.73 18.2318 111.002 17.691 110.036 16.6094C109.07 15.5278 108.588 13.5964 108.588 10.8152C108.588 8.09188 109.08 6.17979 110.065 5.07889C111.069 3.95867 112.788 3.39856 115.222 3.39856C117.713 3.39856 119.432 3.93936 120.379 5.02095C121.345 6.10253 121.827 8.03394 121.827 10.8152ZM110.963 10.7862C110.963 12.9107 111.243 14.3207 111.803 15.016C112.363 15.692 113.503 16.03 115.222 16.03C116.883 16.03 118.003 15.6727 118.583 14.958C119.162 14.2241 119.452 12.8335 119.452 10.7862C119.452 8.66165 119.172 7.26138 118.612 6.58538C118.071 5.89008 116.941 5.54243 115.222 5.54243C113.542 5.54243 112.412 5.89974 111.832 6.61436C111.253 7.32898 110.963 8.71959 110.963 10.7862ZM128.606 5.54243C127.37 5.54243 126.51 5.68728 126.027 5.97699C125.564 6.2667 125.332 6.85578 125.332 7.74423C125.332 8.20777 125.438 8.56508 125.651 8.81616C125.882 9.04793 126.24 9.20244 126.723 9.2797L130.402 9.83015C131.561 10.004 132.372 10.3709 132.835 10.9311C133.299 11.4718 133.531 12.3313 133.531 13.5095C133.531 15.1705 133.135 16.3776 132.343 17.1309C131.551 17.8648 130.238 18.2318 128.403 18.2318C127.302 18.2318 126.278 18.1738 125.332 18.0579C124.386 17.9421 123.603 17.7875 122.985 17.5944V15.3636C123.603 15.5568 124.357 15.7209 125.245 15.8561C126.153 15.972 127.08 16.03 128.026 16.03C129.224 16.03 130.045 15.8561 130.489 15.5085C130.933 15.1608 131.155 14.5428 131.155 13.6543C131.155 13.0942 131.03 12.6886 130.779 12.4375C130.527 12.1672 130.074 11.9837 129.417 11.8871L125.738 11.3366C124.81 11.2014 124.115 10.8441 123.652 10.2647C123.207 9.68529 122.976 8.84513 122.956 7.74423C122.956 6.23773 123.401 5.13683 124.289 4.44152C125.197 3.74622 126.587 3.39856 128.461 3.39856C129.233 3.39856 129.929 3.41788 130.547 3.4565C131.184 3.49513 131.85 3.57239 132.546 3.68827V5.80316C132.044 5.72591 131.455 5.66797 130.779 5.62934C130.103 5.5714 129.378 5.54243 128.606 5.54243ZM140.033 5.54243C138.797 5.54243 137.938 5.68728 137.455 5.97699C136.991 6.2667 136.76 6.85578 136.76 7.74423C136.76 8.20777 136.866 8.56508 137.078 8.81616C137.31 9.04793 137.667 9.20244 138.15 9.2797L141.83 9.83015C142.989 10.004 143.8 10.3709 144.263 10.9311C144.727 11.4718 144.959 12.3313 144.959 13.5095C144.959 15.1705 144.563 16.3776 143.771 17.1309C142.979 17.8648 141.665 18.2318 139.831 18.2318C138.73 18.2318 137.706 18.1738 136.76 18.0579C135.813 17.9421 135.031 17.7875 134.413 17.5944V15.3636C135.031 15.5568 135.784 15.7209 136.673 15.8561C137.581 15.972 138.508 16.03 139.454 16.03C140.652 16.03 141.472 15.8561 141.917 15.5085C142.361 15.1608 142.583 14.5428 142.583 13.6543C142.583 13.0942 142.457 12.6886 142.206 12.4375C141.955 12.1672 141.501 11.9837 140.845 11.8871L137.165 11.3366C136.238 11.2014 135.543 10.8441 135.079 10.2647C134.635 9.68529 134.403 8.84513 134.384 7.74423C134.384 6.23773 134.828 5.13683 135.717 4.44152C136.625 3.74622 138.015 3.39856 139.889 3.39856C140.661 3.39856 141.356 3.41788 141.975 3.4565C142.612 3.49513 143.278 3.57239 143.974 3.68827V5.80316C143.471 5.72591 142.882 5.66797 142.206 5.62934C141.53 5.5714 140.806 5.54243 140.033 5.54243Z" fill="#7789B0"/>
</g>
<defs>
<clipPath id="clip0_77_273">
<rect width="148" height="26" fill="white"/>
</clipPath>
</defs>
</svg>
