<svg width="148" height="26" viewBox="0 0 148 26" fill="none" xmlns="http://www.w3.org/2000/svg">
<g clip-path="url(#clip0_77_311)">
<path d="M59.0814 5.40372C57.7405 3.79545 55.9093 2.99095 53.5878 2.99023C51.4348 2.99023 49.6273 3.71989 48.1651 5.17921C46.7029 6.63852 45.9714 8.41518 45.9707 10.5092C45.9707 12.7334 46.6971 14.5755 48.1498 16.0356C49.6026 17.4956 51.4338 18.2249 53.6434 18.2235C55.4172 18.2235 56.9745 17.7277 58.3154 16.7361C59.6563 15.7445 60.5152 14.4169 60.8922 12.7532H57.2967C57.0068 13.4152 56.4975 13.9594 55.853 14.2956C55.1782 14.6688 54.4173 14.8622 53.6445 14.8569C52.5113 14.8569 51.5721 14.5248 50.8269 13.8606C50.0816 13.1964 49.6425 12.2847 49.5096 11.1255H61.0916C61.0916 8.91924 60.4215 7.01199 59.0814 5.40372ZM49.7362 8.88147C49.9775 8.09044 50.4817 7.40346 51.1668 6.93211C51.8554 6.45503 52.6719 6.21649 53.6161 6.21649C54.5415 6.21649 55.3155 6.45035 55.938 6.91808C56.5605 7.38581 56.9851 8.04027 57.2117 8.88147H49.7362Z" fill="white"/>
<path d="M86.2932 14.3181C85.6185 14.6905 84.858 14.8835 84.0857 14.8783C82.9547 14.8783 82.0166 14.5466 81.2714 13.8832C80.5261 13.2197 80.0881 12.3087 79.9574 11.1502H91.5296C91.5296 8.9461 90.8599 7.0392 89.5204 5.42949C88.181 3.81978 86.3513 3.01745 84.0312 3.02248C81.8812 3.02248 80.0754 3.75106 78.6139 5.20822C77.1525 6.66538 76.4214 8.44059 76.4207 10.5339C76.4207 12.7574 77.147 14.5981 78.5998 16.0559C80.0525 17.5138 81.8819 18.2424 84.0879 18.2417C85.8617 18.2417 87.4179 17.7466 88.7566 16.7565C90.0954 15.7663 90.9536 14.4394 91.3313 12.7757H87.7357C87.446 13.4375 86.9371 13.9816 86.2932 14.3181ZM81.608 6.96005C82.2966 6.48368 83.1124 6.2455 84.0552 6.2455C84.9806 6.2455 85.7542 6.479 86.376 6.94601C86.9977 7.41302 87.4219 8.06713 87.6486 8.90832H80.184C80.4233 8.11839 80.9252 7.43181 81.608 6.96005Z" fill="white"/>
<path d="M74.9944 8.45352C74.9944 5.46689 72.4786 3.03613 69.3864 3.03613H62.6235V18.2661H65.5218V13.872H68.3416L71.1842 18.2661H74.6098L71.5035 13.4629C73.5998 12.6285 74.9944 10.6447 74.9944 8.45352ZM69.3864 11.0008H65.5218V5.90619H69.3864C70.8813 5.90619 72.0962 7.04925 72.0962 8.45352C72.0962 9.85779 70.8813 11.0008 69.3864 11.0008Z" fill="white"/>
<path d="M41.2062 2.96397V4.75573C40.0836 3.82022 38.7147 3.22175 37.2605 3.03072C35.8062 2.83968 34.3272 3.06404 32.9973 3.67738C31.6674 4.29072 30.542 5.26755 29.7534 6.49295C28.9648 7.71836 28.5459 9.14138 28.5459 10.5946C28.5459 12.0479 28.9648 13.4709 29.7534 14.6963C30.542 15.9217 31.6674 16.8985 32.9973 17.5118C34.3272 18.1252 35.8062 18.3495 37.2605 18.1585C38.7147 17.9675 40.0836 17.369 41.2062 16.4335V18.0126C41.2096 18.4409 41.0417 18.8531 40.739 19.159C40.4364 19.4649 40.0237 19.6395 39.5914 19.6446H28.552V23.0242H39.5914C40.9277 23.0185 42.2071 22.488 43.1491 21.5491C44.0911 20.6103 44.6188 19.3396 44.6165 18.0159V2.96397H41.2062ZM36.2541 14.7961C35.4152 14.7961 34.5951 14.5496 33.8976 14.0879C33.2 13.6262 32.6564 12.9699 32.3353 12.2021C32.0143 11.4343 31.9303 10.5894 32.094 9.7743C32.2576 8.95919 32.6616 8.21047 33.2548 7.6228C33.848 7.03514 34.6038 6.63494 35.4266 6.4728C36.2494 6.31067 37.1023 6.39388 37.8773 6.71192C38.6524 7.02996 39.3148 7.56855 39.7809 8.25956C40.247 8.95058 40.4958 9.763 40.4958 10.5941C40.4938 11.7079 40.0462 12.7755 39.2512 13.5631C38.4562 14.3507 37.3784 14.7941 36.2541 14.7961Z" fill="white"/>
<path d="M21.9981 7.27081C21.3073 7.18878 20.5926 7.12401 19.9454 6.90814C17.3217 6.02737 15.5403 4.25827 14.4976 1.7185C13.9332 0.342295 12.7881 -0.23733 11.4784 0.0994351C10.944 0.238728 10.4752 0.557668 10.152 1.00168C9.82879 1.44568 9.67142 1.98715 9.70679 2.53343C9.77761 3.80925 10.695 4.67275 12.1158 4.88539C12.8327 4.98416 13.5383 5.15079 14.223 5.38298C16.7497 6.27562 18.4374 8.05444 19.4998 10.456C20.026 11.6434 20.9925 12.2457 22.1583 12.0751C23.2903 11.9132 24.0977 11.0907 24.2393 9.9563C24.4137 8.55742 23.4701 7.44783 21.9981 7.27081Z" fill="#3EBBFF"/>
<path d="M2.2619 7.27011C2.95269 7.18808 3.66308 7.12331 4.31464 6.90744C6.9383 6.02667 8.71973 4.25757 9.76244 1.7178C10.3268 0.33836 11.4709 -0.241265 12.7805 0.0901036C13.3167 0.229428 13.7872 0.549528 14.1109 0.995335C14.4347 1.44114 14.5915 1.98478 14.5543 2.53273C14.4835 3.80855 13.565 4.67205 12.1453 4.88469C11.4284 4.98334 10.7228 5.14997 10.0381 5.38228C7.5114 6.27492 5.82259 8.05374 4.76027 10.4553C4.23401 11.6427 3.26757 12.245 2.10283 12.0744C1.56521 12.0066 1.06667 11.7603 0.688526 11.3757C0.310384 10.9911 0.0749654 10.4909 0.0206779 9.95667C-0.153652 8.55672 0.789908 7.44713 2.2619 7.27011Z" fill="#3EBBFF"/>
<path d="M2.2619 18.7292C2.95268 18.8112 3.66308 18.876 4.31463 19.0951C6.9383 19.9759 8.71973 21.745 9.76243 24.2858C10.3279 25.661 11.472 26.2406 12.7816 25.9049C13.3178 25.7656 13.7883 25.4455 14.112 24.9997C14.4358 24.5539 14.5925 24.0102 14.5554 23.4623C14.4846 22.1875 13.5661 21.3229 12.1464 21.1103C11.4294 21.0123 10.7234 20.8467 10.0381 20.616C7.5114 19.7222 5.82259 17.9434 4.76026 15.5429C4.23401 14.3556 3.26866 13.7576 2.10283 13.9238C1.56505 13.9917 1.06637 14.2382 0.688211 14.623C0.310048 15.0078 0.0747329 15.5083 0.0206779 16.0426C-0.153652 17.4426 0.789907 18.5544 2.2619 18.7292Z" fill="#3EBBFF"/>
<path d="M21.9983 18.7286C21.3075 18.8106 20.5971 18.8754 19.9456 19.0945C17.3219 19.9753 15.5405 21.7444 14.4978 24.2852C13.9334 25.6604 12.7882 26.24 11.4786 25.9043C10.9425 25.7649 10.4721 25.4448 10.1486 24.999C9.82502 24.5531 9.66847 24.0095 9.70587 23.4617C9.7767 22.1869 10.6941 21.3223 12.1149 21.1097C12.8316 21.0108 13.5372 20.8445 14.2221 20.6132C16.7488 19.7195 18.4365 17.9407 19.4988 15.5401C20.0251 14.3528 20.9915 13.7505 22.1574 13.9211C23.2894 14.083 24.0968 14.9055 24.2384 16.0399C24.4139 17.442 23.4703 18.5537 21.9983 18.7286Z" fill="#3EBBFF"/>
<path d="M17.8437 12.9596C17.8449 13.3538 17.8003 13.7468 17.7107 14.1308C17.6177 14.5356 17.4746 14.9275 17.2847 15.2976C16.8339 16.1814 16.1435 16.9235 15.2911 17.4407C14.4386 17.9579 13.4576 18.2298 12.458 18.2259C9.48346 18.2259 7.07227 15.8686 7.07227 12.9596C7.07227 10.0507 9.4791 7.69338 12.458 7.69338C12.8832 7.69235 13.307 7.7409 13.7208 7.83801C13.2021 8.06827 12.7616 8.44209 12.4523 8.91449C12.1431 9.3869 11.9782 9.93777 11.9775 10.5008C11.9748 10.5411 11.9748 10.5815 11.9775 10.6217C12.0135 11.3827 12.3452 12.1004 12.9033 12.6245C13.4614 13.1486 14.2026 13.4385 14.9716 13.4335C15.2667 13.4335 15.5603 13.3913 15.8432 13.3083C16.2464 13.1883 16.6193 12.9852 16.9376 12.7123C17.2559 12.4394 17.5123 12.1029 17.69 11.7248C17.7917 12.1287 17.8433 12.5434 17.8437 12.9596Z" fill="#3EBBFF"/>
<path d="M92.4219 4.46177C92.4219 4.77335 92.3493 5.00398 92.204 5.15365C92.058 5.30369 91.8368 5.37816 91.5383 5.37816C91.2397 5.37816 91.0131 5.30369 90.8671 5.15365C90.7211 5.00362 90.6492 4.77371 90.6492 4.46177C90.6492 4.14983 90.7222 3.92209 90.8671 3.77529C91.012 3.6285 91.2365 3.55078 91.5383 3.55078C91.8401 3.55078 92.058 3.62634 92.204 3.77529C92.35 3.92424 92.4219 4.15307 92.4219 4.46177ZM92.3206 4.46177C92.3206 4.18617 92.2563 3.98145 92.1277 3.84761C91.9991 3.71377 91.8023 3.64649 91.5372 3.64577C91.2691 3.64577 91.0708 3.71305 90.9423 3.84761C90.8137 3.98217 90.7491 4.18689 90.7483 4.46177C90.7483 4.74133 90.8126 4.94749 90.9423 5.08241C91.0719 5.21734 91.2691 5.28318 91.5372 5.28318C91.8052 5.28318 91.9991 5.21626 92.1277 5.08241C92.2563 4.94857 92.3206 4.74133 92.3206 4.46177ZM91.3051 4.58698V4.96476H91.1961V3.95447H91.5328C91.6387 3.94515 91.7447 3.97056 91.8346 4.02679C91.867 4.05669 91.892 4.09356 91.9076 4.13454C91.9233 4.17553 91.9293 4.21954 91.9251 4.26317C91.9301 4.33991 91.9086 4.41606 91.864 4.47904C91.8172 4.53454 91.7512 4.57072 91.6788 4.5805L91.9588 4.96476H91.8281L91.572 4.5913L91.3051 4.58698ZM91.8324 4.26317C91.8351 4.23259 91.8301 4.20185 91.8179 4.17362C91.8058 4.1454 91.7868 4.12055 91.7627 4.10126C91.6971 4.06232 91.6211 4.04423 91.5448 4.04945H91.3051V4.50171H91.5415C91.6186 4.50758 91.6954 4.48741 91.7594 4.4445C91.7843 4.42166 91.8035 4.39337 91.8154 4.36189C91.8274 4.33041 91.8317 4.2966 91.8281 4.26317H91.8324Z" fill="white"/>
<path d="M105.3 16.9141C106.092 16.9141 106.922 16.8272 107.791 16.6533C108.68 16.4602 109.501 16.2091 110.254 15.9001V18.1019C109.192 18.5268 108.245 18.8262 107.415 19C106.603 19.1545 105.754 19.2318 104.865 19.2318C102.084 19.2318 100.124 18.5171 98.984 17.0879C97.8445 15.6394 97.2747 13.2348 97.2747 9.8741C97.2747 6.64865 97.9314 4.29234 99.2448 2.80515C100.577 1.29866 102.692 0.545406 105.589 0.545406C106.478 0.545406 107.27 0.56472 107.965 0.603348C108.66 0.641977 109.288 0.709576 109.848 0.806146V2.97898C109.172 2.90172 108.487 2.85344 107.791 2.83412C107.115 2.7955 106.381 2.77618 105.589 2.77618C103.426 2.77618 101.92 3.31698 101.07 4.39856C100.22 5.46084 99.7952 7.28602 99.7952 9.8741C99.7952 12.5008 100.181 14.3357 100.954 15.3786C101.727 16.4023 103.175 16.9141 105.3 16.9141ZM114.24 12.4815V19H111.777V0.835117H117.948C120.517 0.835117 122.351 1.27934 123.452 2.16779C124.573 3.03692 125.133 4.48548 125.133 6.51345C125.133 8.09721 124.775 9.36228 124.061 10.3087C123.365 11.2357 122.303 11.8635 120.874 12.1918L125.625 19H122.67L118.267 12.4815H114.24ZM122.641 6.51345C122.641 5.27735 122.284 4.39856 121.569 3.87708C120.855 3.33629 119.648 3.06589 117.948 3.06589H114.24V10.3087H117.948C119.609 10.3087 120.806 10.0093 121.54 9.41056C122.274 8.81183 122.641 7.84612 122.641 6.51345ZM144.372 0.835117V19H142.055V4.68827L136.869 15.3786H134.754L129.568 4.6593V19H127.251V0.835117H130.35L135.855 12.3946L141.388 0.835117H144.372Z" fill="#7789B0"/>
</g>
<defs>
<clipPath id="clip0_77_311">
<rect width="148" height="26" fill="white"/>
</clipPath>
</defs>
</svg>
