<svg width="148" height="42" viewBox="0 0 148 42" fill="none" xmlns="http://www.w3.org/2000/svg">
<path d="M94.2694 8.73197C92.1302 6.13413 89.2084 4.83521 85.504 4.83521C82.069 4.83521 79.1846 6.01322 76.8508 8.36924C74.517 10.7253 73.3498 13.596 73.3491 16.9814C73.3491 20.5763 74.5089 23.552 76.8286 25.9087C79.1482 28.2654 82.07 29.4434 85.5939 29.4428C88.4228 29.4428 90.9078 28.6423 93.0489 27.0415C95.1901 25.4406 96.5607 23.2957 97.1608 20.6067H91.4223C90.9711 21.6644 90.2029 22.4953 89.1178 23.0991C88.0409 23.7011 86.8268 24.0132 85.5939 24.0049C83.7868 24.0049 82.2882 23.4689 81.0981 22.397C79.908 21.325 79.2078 19.8522 78.9977 17.9784H97.4771C97.4771 14.412 96.4078 11.3298 94.2694 8.73197ZM79.3584 14.3512C79.7435 13.0733 80.5477 11.9633 81.6406 11.2011C82.7398 10.4311 84.0425 10.0461 85.5485 10.0461C87.0242 10.0461 88.2591 10.4237 89.2532 11.1788C90.2474 11.934 90.9253 12.9915 91.287 14.3512H79.3584Z" fill="white"/>
<path d="M137.691 23.1295C136.615 23.7315 135.402 24.0436 134.17 24.0353C132.364 24.0353 130.867 23.4997 129.678 22.4284C128.49 21.3571 127.79 19.8856 127.579 18.0139H146.043C146.043 14.4528 144.975 11.3744 142.838 8.77858C140.7 6.18277 137.781 4.88486 134.08 4.88486C130.649 4.88486 127.768 6.06186 125.435 8.41586C123.103 10.7699 121.937 13.6372 121.937 17.0179C121.937 20.61 123.095 23.5821 125.413 25.9341C127.731 28.286 130.65 29.463 134.17 29.4651C136.999 29.4651 139.482 28.6653 141.619 27.0658C143.756 25.4663 145.126 23.3234 145.727 20.6371H139.991C139.541 21.6948 138.774 22.5257 137.691 23.1295ZM130.215 11.2457C131.314 10.4757 132.616 10.0907 134.12 10.0907C135.595 10.0907 136.829 10.4679 137.822 11.2224C138.816 11.9769 139.493 13.0333 139.853 14.3917H127.932C128.318 13.1139 129.125 12.005 130.22 11.2457H130.215Z" fill="white"/>
<path d="M119.659 13.6581C119.659 8.83328 115.645 4.90714 110.712 4.90714H99.9221V29.5076H104.545V22.4091H109.046L113.58 29.5076H119.047L114.09 21.7495C117.436 20.406 119.659 17.1983 119.659 13.6581ZM110.712 17.7727H104.549V9.54353H110.712C113.096 9.54353 115.036 11.3896 115.036 13.6581C115.036 15.9267 113.096 17.7727 110.712 17.7727Z" fill="white"/>
<path d="M65.7468 4.79163V7.68533C63.9557 6.17411 61.7715 5.20731 59.4511 4.89864C57.1307 4.58998 54.7707 4.95229 52.6487 5.94297C50.5267 6.93364 48.7309 8.51146 47.4726 10.4908C46.2144 12.4702 45.5459 14.7688 45.5459 17.1162C45.5459 19.4636 46.2144 21.7622 47.4726 23.7415C48.7309 25.7209 50.5267 27.2987 52.6487 28.2894C54.7707 29.2801 57.1307 29.6424 59.4511 29.3337C61.7715 29.0251 63.9557 28.0583 65.7468 26.547V29.0983C65.7532 29.79 65.4856 30.456 65.0028 30.9499C64.5199 31.4439 63.8612 31.7254 63.1715 31.7326H45.558V37.1907H63.1715C67.5926 37.1907 71.1892 33.5614 71.1892 29.1013V4.79163H65.7468ZM57.8472 23.9026C56.5085 23.9026 55.1998 23.5045 54.0866 22.7585C52.9734 22.0126 52.1058 20.9524 51.5935 19.712C51.0812 18.4716 50.9471 17.1066 51.2083 15.7898C51.4695 14.473 52.1142 13.2634 53.0608 12.314C54.0075 11.3646 55.2136 10.7181 56.5267 10.4562C57.8397 10.1942 59.2008 10.3287 60.4376 10.8425C61.6745 11.3563 62.7317 12.2264 63.4755 13.3427C64.2192 14.4591 64.6162 15.7715 64.6162 17.1142C64.6146 18.9141 63.901 20.6398 62.6319 21.9125C61.3628 23.1853 59.642 23.901 57.8472 23.9026Z" fill="white"/>
<path d="M35.1003 11.7442C33.9991 11.6125 32.8645 11.5071 31.8249 11.1535C27.6392 9.72996 24.7973 6.87274 23.1363 2.76928C22.2352 0.547339 20.4085 -0.387844 18.3192 0.147125C16.5654 0.596985 15.3894 2.23735 15.4904 4.09252C15.6026 6.15236 17.0685 7.54753 19.3295 7.891C20.4745 8.05098 21.6015 8.32106 22.6948 8.69751C26.7259 10.1403 29.4204 13.0127 31.1157 16.8872C31.9542 18.8062 33.4969 19.7789 35.3589 19.5094C37.1653 19.248 38.4545 17.9196 38.6808 16.0868C38.9606 13.8263 37.4452 12.0299 35.1003 11.7442Z" fill="#2CC84D"/>
<path d="M3.61037 11.7442C4.7116 11.6125 5.84616 11.5071 6.88576 11.1535C11.0714 9.72996 13.9134 6.87274 15.5743 2.76928C16.4755 0.547339 18.3021 -0.387844 20.3904 0.147125C22.1453 0.596985 23.3203 2.23735 23.2192 4.09252C23.1061 6.15235 21.6412 7.54753 19.3801 7.891C18.2359 8.05018 17.1097 8.31923 16.0168 8.69447C11.9857 10.1373 9.29228 13.0097 7.59701 16.8842C6.75745 18.8032 5.21472 19.7758 3.35375 19.5063C1.54734 19.2449 0.258203 17.9166 0.0329065 16.0837C-0.244925 13.8263 1.26143 12.0299 3.61037 11.7442Z" fill="#2CC84D"/>
<path d="M3.61037 30.2564C4.7116 30.3881 5.84616 30.4935 6.88576 30.8471C11.0714 32.2706 13.9134 35.1278 15.5743 39.2303C16.4755 41.4532 18.3021 42.3884 20.3904 41.8524C22.1453 41.4036 23.3203 39.7622 23.2192 37.908C23.1061 35.8482 21.6412 34.453 19.3801 34.1096C18.236 33.9499 17.1098 33.6809 16.0168 33.3061C11.9857 31.8633 9.29228 28.9899 7.59701 25.1154C6.75745 23.1974 5.21472 22.2247 3.35375 22.4943C1.54734 22.7557 0.258203 24.084 0.0329065 25.9168C-0.244925 28.1773 1.26143 29.9737 3.61037 30.2564Z" fill="#2CC84D"/>
<path d="M35.1003 30.2564C33.9991 30.3881 32.8645 30.4935 31.8249 30.8471C27.6392 32.2706 24.7973 35.1278 23.1363 39.2303C22.2352 41.4532 20.4085 42.3884 18.3192 41.8524C16.5654 41.4036 15.3894 39.7622 15.4904 37.908C15.6026 35.8482 17.0685 34.453 19.3295 34.1096C20.4743 33.9501 21.6012 33.681 22.6948 33.3061C26.7259 31.8633 29.4204 28.9899 31.1157 25.1154C31.9542 23.1974 33.4969 22.2247 35.3589 22.4943C37.1653 22.7557 38.4545 24.084 38.6808 25.9168C38.9606 28.1773 37.4452 29.9737 35.1003 30.2564Z" fill="#2CC84D"/>
<path d="M28.4728 20.9369C28.4742 21.5737 28.4023 22.2084 28.2586 22.8286C28.1111 23.4826 27.883 24.1156 27.5797 24.7131C26.8609 26.141 25.7597 27.34 24.3996 28.1755C23.0395 29.0111 21.4742 29.4502 19.8792 29.4438C15.1308 29.4438 11.2856 25.6362 11.2856 20.9329C11.2856 16.2296 15.1318 12.422 19.8792 12.422C20.5573 12.4204 21.2332 12.4993 21.8928 12.6571C21.064 13.0278 20.3598 13.631 19.865 14.3939C19.3703 15.1569 19.1061 16.047 19.1043 16.9571C19.103 17.0224 19.1057 17.0877 19.1124 17.1526C19.2135 19.6775 21.3088 21.6948 23.8911 21.6948C24.3645 21.6954 24.8355 21.6272 25.2894 21.4922C25.9323 21.2981 26.5272 20.9699 27.0348 20.5292C27.5425 20.0885 27.9517 19.5452 28.2354 18.9349C28.3953 19.5901 28.475 20.2624 28.4728 20.9369Z" fill="#2CC84D"/>
<path d="M147.467 7.21117C147.467 7.71507 147.35 8.08657 147.118 8.32569C146.886 8.5648 146.53 8.68638 146.052 8.69044C145.571 8.69044 145.215 8.56987 144.982 8.32873C144.75 8.08759 144.634 7.71608 144.634 7.21421C144.634 6.71571 144.75 6.3459 144.982 6.10475C145.215 5.86361 145.571 5.74304 146.052 5.74304C146.528 5.74304 146.883 5.86361 147.115 6.10475C147.347 6.3459 147.465 6.7147 147.467 7.21117ZM147.306 7.21117C147.306 6.76671 147.203 6.43573 146.998 6.21823C146.792 6.00073 146.478 5.89232 146.055 5.893C145.628 5.893 145.311 6.00141 145.106 6.21823C144.9 6.43506 144.797 6.76604 144.796 7.21117C144.796 7.66171 144.9 7.99539 145.106 8.21221C145.312 8.42903 145.628 8.53745 146.055 8.53745C146.478 8.53745 146.792 8.42903 146.998 8.21221C147.204 7.99539 147.307 7.66171 147.306 7.21117ZM145.678 7.41381V8.02173H145.519V6.40061H146.052C146.278 6.40061 146.437 6.43911 146.534 6.51713C146.586 6.56557 146.625 6.62519 146.65 6.69141C146.675 6.75762 146.684 6.82867 146.678 6.8991C146.683 7.02107 146.648 7.14136 146.577 7.24055C146.501 7.33029 146.395 7.38907 146.28 7.4057L146.713 8.02477H146.511L146.102 7.41685L145.678 7.41381ZM146.521 6.89201C146.525 6.84257 146.517 6.7929 146.497 6.74733C146.478 6.70177 146.447 6.66169 146.409 6.63061C146.303 6.56609 146.179 6.53667 146.055 6.54651H145.678V7.27804H146.052C146.177 7.28794 146.302 7.25508 146.406 7.18483C146.446 7.14789 146.478 7.10207 146.498 7.05093C146.518 6.99979 146.526 6.9447 146.521 6.88998V6.89201Z" fill="#181F2E"/>
</svg>
