<svg width="31" height="32" viewBox="0 0 31 32" fill="none" xmlns="http://www.w3.org/2000/svg">
<circle cx="15.7273" cy="15.8988" r="15.1624" fill="#1E2536"/>
<path d="M16.3489 19.9667C14.7467 19.9667 14.1167 19.2511 14.0311 18.3333H12.32C12.4133 20.0367 13.6889 20.9933 15.1822 21.3122V23H17.5156V21.3278C19.0322 21.04 20.2378 20.1611 20.2378 18.5667C20.2378 16.3578 18.3478 15.6033 16.5822 15.1444C14.8167 14.6856 14.2489 14.2111 14.2489 13.4722C14.2489 12.6244 15.0345 12.0333 16.3489 12.0333C17.7333 12.0333 18.2467 12.6944 18.2933 13.6667H20.0122C19.9578 12.3289 19.1411 11.1 17.5156 10.7033V9H15.1822V10.68C13.6733 11.0067 12.46 11.9867 12.46 13.4878C12.46 15.2844 13.9456 16.1789 16.1156 16.7C18.06 17.1667 18.4489 17.8511 18.4489 18.5744C18.4489 19.1111 18.0678 19.9667 16.3489 19.9667Z" fill="#DFE3E8"/>
</svg>
