<svg width="31" height="32" viewBox="0 0 31 32" fill="none" xmlns="http://www.w3.org/2000/svg">
<circle cx="15.7182" cy="15.8988" r="15.1624" fill="#6E768E"/>
<path opacity="0.3" d="M15.7183 11.0468C13.0436 11.0468 10.8663 13.2241 10.8663 15.8988C10.8663 17.0026 11.2423 18.0155 11.861 18.8282C12.7282 17.7729 14.8328 17.415 15.7183 17.415C16.6037 17.415 18.7083 17.7729 19.5756 18.8282C20.1942 18.0155 20.5702 17.0026 20.5702 15.8988C20.5702 13.2241 18.3929 11.0468 15.7183 11.0468ZM15.7183 16.5053C14.5417 16.5053 13.5955 15.5592 13.5955 14.3826C13.5955 13.206 14.5417 12.2598 15.7183 12.2598C16.8949 12.2598 17.841 13.206 17.841 14.3826C17.841 15.5592 16.8949 16.5053 15.7183 16.5053Z" fill="#6E768E" fill-opacity="0.3"/>
<path d="M15.7182 9.83385C12.3704 9.83385 9.65326 12.5509 9.65326 15.8988C9.65326 19.2467 12.3704 21.9638 15.7182 21.9638C19.0661 21.9638 21.7832 19.2467 21.7832 15.8988C21.7832 12.5509 19.0661 9.83385 15.7182 9.83385ZM12.7282 19.7076C12.989 19.1617 14.578 18.628 15.7182 18.628C16.8584 18.628 18.4535 19.1617 18.7082 19.7076C17.8834 20.3626 16.8463 20.7508 15.7182 20.7508C14.5901 20.7508 13.553 20.3626 12.7282 19.7076ZM19.5755 18.8282C18.7082 17.7729 16.6037 17.415 15.7182 17.415C14.8327 17.415 12.7282 17.7729 11.8609 18.8282C11.2423 18.0155 10.8663 17.0026 10.8663 15.8988C10.8663 13.2242 13.0436 11.0468 15.7182 11.0468C18.3929 11.0468 20.5702 13.2242 20.5702 15.8988C20.5702 17.0026 20.1941 18.0155 19.5755 18.8282ZM15.7182 12.2598C14.5416 12.2598 13.5955 13.206 13.5955 14.3826C13.5955 15.5592 14.5416 16.5053 15.7182 16.5053C16.8948 16.5053 17.8409 15.5592 17.8409 14.3826C17.8409 13.206 16.8948 12.2598 15.7182 12.2598ZM15.7182 15.2923C15.2148 15.2923 14.8085 14.886 14.8085 14.3826C14.8085 13.8792 15.2148 13.4728 15.7182 13.4728C16.2216 13.4728 16.628 13.8792 16.628 14.3826C16.628 14.886 16.2216 15.2923 15.7182 15.2923Z" fill="#1E2536"/>
</svg>
