<svg width="31" height="31" viewBox="0 0 31 31" fill="none" xmlns="http://www.w3.org/2000/svg">
<circle cx="15.1624" cy="15.1624" r="15.1624" fill="#1E2536"/>
<g opacity="0.3">
<path d="M10.4444 20.5555H20.5555V12.6111H10.4444V20.5555ZM15.5 14.0555L18.3889 16.9444H16.5472V19.1111H14.4455V16.9444H12.6111L15.5 14.0555Z" fill="#2CC84D"/>
<path d="M15.5 14.0555L18.3889 16.9444H16.5472V19.1111H14.4455V16.9444H12.6111L15.5 14.0555Z" fill="#2CC84D"/>
</g>
<path d="M21.6678 10.6106L20.6639 9.39722C20.4689 9.15167 20.1728 9 19.8333 9H11.1667C10.8272 9 10.5311 9.15167 10.3289 9.39722L9.33222 10.6106C9.12278 10.8561 9 11.1811 9 11.5278V20.5556C9 21.35 9.65 22 10.4444 22H20.5556C21.35 22 22 21.35 22 20.5556V11.5278C22 11.1811 21.8772 10.8561 21.6678 10.6106ZM11.34 10.4444H19.66L20.2594 11.1667H10.7478L11.34 10.4444ZM20.5556 20.5556H10.4444V12.6111H20.5556V20.5556Z" fill="#2CC84D"/>
</svg>
