<svg width="31" height="32" viewBox="0 0 31 32" fill="none" xmlns="http://www.w3.org/2000/svg">
<circle cx="15.2651" cy="15.8988" r="15.1624" fill="#2CC84D" fill-opacity="0.4"/>
<g opacity="0.3">
<path d="M13 15.3333C13.7364 15.3333 14.3333 14.7364 14.3333 14C14.3333 13.2636 13.7364 12.6667 13 12.6667C12.2636 12.6667 11.6667 13.2636 11.6667 14C11.6667 14.7364 12.2636 15.3333 13 15.3333Z" fill="#2CC84D" fill-opacity="0.4"/>
<path d="M13 19.3333C11.2067 19.3333 9.15333 20.1866 9 20.6666H17C16.8667 20.1933 14.8 19.3333 13 19.3333Z" fill="#2CC84D" fill-opacity="0.4"/>
</g>
<path d="M13 16.6667C14.4734 16.6667 15.6667 15.4733 15.6667 14C15.6667 12.5267 14.4734 11.3333 13 11.3333C11.5267 11.3333 10.3334 12.5267 10.3334 14C10.3334 15.4733 11.5267 16.6667 13 16.6667ZM13 12.6667C13.7334 12.6667 14.3334 13.2667 14.3334 14C14.3334 14.7333 13.7334 15.3333 13 15.3333C12.2667 15.3333 11.6667 14.7333 11.6667 14C11.6667 13.2667 12.2667 12.6667 13 12.6667ZM13 18C11.22 18 7.66669 18.8933 7.66669 20.6667V22H18.3334V20.6667C18.3334 18.8933 14.78 18 13 18ZM9.00002 20.6667C9.14669 20.1867 11.2067 19.3333 13 19.3333C14.8 19.3333 16.8667 20.1933 17 20.6667H9.00002ZM18.1734 11.5733L17.0534 12.7C17.6134 13.4867 17.6134 14.5067 17.0534 15.2933L18.1734 16.42C19.52 15.0733 19.52 13.04 18.1734 11.5733ZM20.38 9.33334L19.2934 10.42C21.14 12.4333 21.14 15.46 19.2934 17.58L20.38 18.6667C22.98 16.0733 22.9867 12.0333 20.38 9.33334Z" fill="#2CC84D"/>
</svg>
