<svg width="31" height="31" viewBox="0 0 31 31" fill="none" xmlns="http://www.w3.org/2000/svg">
<circle cx="15.1624" cy="15.1624" r="15.1624" fill="#3EBBFF" fill-opacity="0.4"/>
<path opacity="0.3" d="M15 9.66663C12.06 9.66663 9.66666 12.06 9.66666 15C9.66666 16.2133 10.08 17.3266 10.76 18.22C11.7133 17.06 14.0267 16.6666 15 16.6666C15.9733 16.6666 18.2867 17.06 19.24 18.22C19.92 17.3266 20.3333 16.2133 20.3333 15C20.3333 12.06 17.94 9.66663 15 9.66663ZM15 15.6666C13.7067 15.6666 12.6667 14.6266 12.6667 13.3333C12.6667 12.04 13.7067 11 15 11C16.2933 11 17.3333 12.04 17.3333 13.3333C17.3333 14.6266 16.2933 15.6666 15 15.6666Z" fill="#6E768E" fill-opacity="0.3"/>
<path d="M15 8.33331C11.32 8.33331 8.33336 11.32 8.33336 15C8.33336 18.68 11.32 21.6666 15 21.6666C18.68 21.6666 21.6667 18.68 21.6667 15C21.6667 11.32 18.68 8.33331 15 8.33331ZM11.7134 19.1866C12 18.5866 13.7467 18 15 18C16.2534 18 18.0067 18.5866 18.2867 19.1866C17.38 19.9066 16.24 20.3333 15 20.3333C13.76 20.3333 12.62 19.9066 11.7134 19.1866ZM19.24 18.22C18.2867 17.06 15.9734 16.6666 15 16.6666C14.0267 16.6666 11.7134 17.06 10.76 18.22C10.08 17.3266 9.66669 16.2133 9.66669 15C9.66669 12.06 12.06 9.66665 15 9.66665C17.94 9.66665 20.3334 12.06 20.3334 15C20.3334 16.2133 19.92 17.3266 19.24 18.22ZM15 11C13.7067 11 12.6667 12.04 12.6667 13.3333C12.6667 14.6266 13.7067 15.6666 15 15.6666C16.2934 15.6666 17.3334 14.6266 17.3334 13.3333C17.3334 12.04 16.2934 11 15 11ZM15 14.3333C14.4467 14.3333 14 13.8866 14 13.3333C14 12.78 14.4467 12.3333 15 12.3333C15.5534 12.3333 16 12.78 16 13.3333C16 13.8866 15.5534 14.3333 15 14.3333Z" fill="#3EBBFF"/>
</svg>
