<svg width="14" height="14" viewBox="0 0 14 14" fill="none" xmlns="http://www.w3.org/2000/svg">
<path opacity="0.3" d="M7.00002 1.66667C4.06002 1.66667 1.66669 4.06001 1.66669 7.00001C1.66669 9.94001 4.06002 12.3333 7.00002 12.3333C9.94002 12.3333 12.3334 9.94001 12.3334 7.00001C12.3334 4.06001 9.94002 1.66667 7.00002 1.66667Z" fill="#6E768E" fill-opacity="0.3"/>
<path d="M6.99998 0.333344C3.31998 0.333344 0.333313 3.32001 0.333313 7.00001C0.333313 10.68 3.31998 13.6667 6.99998 13.6667C10.68 13.6667 13.6666 10.68 13.6666 7.00001C13.6666 3.32001 10.68 0.333344 6.99998 0.333344ZM6.99998 12.3333C4.05998 12.3333 1.66665 9.94001 1.66665 7.00001C1.66665 4.06001 4.05998 1.66668 6.99998 1.66668C9.93998 1.66668 12.3333 4.06001 12.3333 7.00001C12.3333 9.94001 9.93998 12.3333 6.99998 12.3333Z" fill="#1E2536"/>
<path d="M7.45331 4.17334C6.71331 3.43334 5.59331 3.30667 4.71997 3.78001L6.28664 5.34667L5.34664 6.28667L3.77997 4.72001C3.30664 5.60001 3.43331 6.71334 4.17331 7.45334C4.82664 8.10667 5.77331 8.28001 6.58664 7.99334L8.85998 10.2667C8.99331 10.4 9.19998 10.4 9.33331 10.2667L10.2666 9.33334C10.4 9.20001 10.4 8.99334 10.2666 8.86001L7.99331 6.58667C8.27997 5.76667 8.10664 4.82667 7.45331 4.17334Z" fill="#1E2536"/>
</svg>
