<svg width="31" height="31" viewBox="0 0 31 31" fill="none" xmlns="http://www.w3.org/2000/svg">
<circle cx="15.1624" cy="15.1624" r="15.1624" fill="#DFE3E8"/>
<path opacity="0.3" d="M15.0001 8.60001C11.4721 8.60001 8.60005 11.472 8.60005 15C8.60005 18.528 11.4721 21.4 15.0001 21.4C18.5281 21.4 21.4001 18.528 21.4001 15C21.4001 11.472 18.5281 8.60001 15.0001 8.60001Z" fill="#6E768E" fill-opacity="0.3"/>
<path d="M15 7C10.584 7 7 10.584 7 15C7 19.416 10.584 23 15 23C19.416 23 23 19.416 23 15C23 10.584 19.416 7 15 7ZM15 21.4C11.472 21.4 8.6 18.528 8.6 15C8.6 11.472 11.472 8.6 15 8.6C18.528 8.6 21.4 11.472 21.4 15C21.4 18.528 18.528 21.4 15 21.4Z" fill="#181F2E"/>
<path d="M15.544 11.608C14.656 10.72 13.312 10.568 12.264 11.136L14.144 13.016L13.016 14.144L11.136 12.264C10.568 13.32 10.72 14.656 11.608 15.544C12.392 16.328 13.528 16.536 14.504 16.192L17.232 18.92C17.392 19.08 17.64 19.08 17.8 18.92L18.92 17.8C19.08 17.64 19.08 17.392 18.92 17.232L16.192 14.504C16.536 13.52 16.328 12.392 15.544 11.608Z" fill="#181F2E"/>
</svg>
