<svg width="32" height="32" viewBox="0 0 32 32" fill="none" xmlns="http://www.w3.org/2000/svg">
<circle cx="16.0007" cy="15.8988" r="15.1624" fill="#EFEFEF"/>
<path d="M20.6666 9.99998L16.6666 14L18 15.3333L22.6666 10.6666V9.99998H20.6666ZM14.6666 12C14.6666 10.5266 13.4733 9.33331 12 9.33331C10.5266 9.33331 9.33331 10.5266 9.33331 12C9.33331 13.4733 10.5266 14.6666 12 14.6666C12.3933 14.6666 12.76 14.58 13.0933 14.4266L14.6666 16L13.0933 17.5733C12.76 17.42 12.3933 17.3333 12 17.3333C10.5266 17.3333 9.33331 18.5266 9.33331 20C9.33331 21.4733 10.5266 22.6666 12 22.6666C13.4733 22.6666 14.6666 21.4733 14.6666 20C14.6666 19.6066 14.58 19.24 14.4266 18.9066L16 17.3333L20.6666 22H22.6666V21.3333L14.4266 13.0933C14.58 12.76 14.6666 12.3933 14.6666 12ZM12 13.3333C11.2666 13.3333 10.6666 12.74 10.6666 12C10.6666 11.26 11.2666 10.6666 12 10.6666C12.7333 10.6666 13.3333 11.26 13.3333 12C13.3333 12.74 12.7333 13.3333 12 13.3333ZM12 21.3333C11.2666 21.3333 10.6666 20.74 10.6666 20C10.6666 19.26 11.2666 18.6666 12 18.6666C12.7333 18.6666 13.3333 19.26 13.3333 20C13.3333 20.74 12.7333 21.3333 12 21.3333ZM16 15.6666C16.1866 15.6666 16.3333 15.8133 16.3333 16C16.3333 16.1866 16.1866 16.3333 16 16.3333C15.8133 16.3333 15.6666 16.1866 15.6666 16C15.6666 15.8133 15.8133 15.6666 16 15.6666Z" fill="#1E2536"/>
</svg>
