<svg width="16" height="16" viewBox="0 0 16 16" fill="none" xmlns="http://www.w3.org/2000/svg">
<path opacity="0.3" d="M7.99996 6.66667C8.73634 6.66667 9.33329 6.06971 9.33329 5.33333C9.33329 4.59695 8.73634 4 7.99996 4C7.26358 4 6.66663 4.59695 6.66663 5.33333C6.66663 6.06971 7.26358 6.66667 7.99996 6.66667Z" fill="#3EBBFF" fill-opacity="0.4"/>
<path opacity="0.3" d="M8 10C6.2 10 4.13333 10.86 4 11.34V12H12V11.3333C11.8667 10.86 9.8 10 8 10Z" fill="#2CC84D" fill-opacity="0.4"/>
<path d="M7.99996 8.00002C9.47329 8.00002 10.6666 6.80669 10.6666 5.33335C10.6666 3.86002 9.47329 2.66669 7.99996 2.66669C6.52663 2.66669 5.33329 3.86002 5.33329 5.33335C5.33329 6.80669 6.52663 8.00002 7.99996 8.00002ZM7.99996 4.00002C8.73329 4.00002 9.33329 4.60002 9.33329 5.33335C9.33329 6.06669 8.73329 6.66669 7.99996 6.66669C7.26663 6.66669 6.66663 6.06669 6.66663 5.33335C6.66663 4.60002 7.26663 4.00002 7.99996 4.00002ZM7.99996 8.66669C6.21996 8.66669 2.66663 9.56002 2.66663 11.3334V13.3334H13.3333V11.3334C13.3333 9.56002 9.77996 8.66669 7.99996 8.66669ZM12 12H3.99996V11.34C4.13329 10.86 6.19996 10 7.99996 10C9.79996 10 11.8666 10.86 12 11.3334V12Z" fill="url(#paint0_linear_14_184)"/>
<defs>
<linearGradient id="paint0_linear_14_184" x1="13.3333" y1="2.66669" x2="4.40576" y2="14.6087" gradientUnits="userSpaceOnUse">
<stop stop-color="#3EBBFF"/>
<stop offset="1" stop-color="#2CC84D"/>
</linearGradient>
</defs>
</svg>
