<svg width="32" height="32" viewBox="0 0 32 32" fill="none" xmlns="http://www.w3.org/2000/svg">
<circle cx="16.1533" cy="15.8988" r="15.1624" fill="#2CC84D" fill-opacity="0.4"/>
<path d="M21.6946 12.474C21.2962 12.4238 20.8859 12.3837 20.51 12.2489C18.996 11.7066 17.9682 10.619 17.3667 9.05519C17.0408 8.20853 16.3806 7.85215 15.6248 8.05611C14.9902 8.22725 14.5647 8.85234 14.6014 9.55914C14.6421 10.3433 15.1722 10.8752 15.9916 11.0053C16.4025 11.0714 16.8171 11.1639 17.2076 11.3113C18.6655 11.8619 19.64 12.9557 20.2529 14.4319C20.5565 15.1629 21.1144 15.5332 21.7867 15.4307C22.4401 15.3312 22.9063 14.8248 22.988 14.1268C23.0889 13.2661 22.5439 12.5815 21.6946 12.474Z" fill="#2CC84D"/>
<path d="M10.3054 12.474C10.7038 12.4238 11.1141 12.3837 11.49 12.2489C13.004 11.7066 14.0318 10.619 14.6333 9.05519C14.9592 8.20853 15.6194 7.85215 16.3752 8.05611C17.0098 8.22725 17.4353 8.85234 17.3986 9.55914C17.3569 10.3437 16.8278 10.8756 16.0084 11.0064C15.5975 11.0725 15.1829 11.165 14.7924 11.3124C13.3345 11.863 12.36 12.9568 11.7471 14.433C11.4435 15.164 10.8856 15.5343 10.2133 15.4318C9.55988 15.3323 9.09372 14.8259 9.01199 14.1279C8.91109 13.2661 9.45606 12.5815 10.3054 12.474Z" fill="#2CC84D"/>
<path d="M10.3054 19.526C10.7038 19.5762 11.1141 19.6163 11.49 19.7511C13.004 20.2934 14.0318 21.381 14.6333 22.9448C14.9592 23.7915 15.6194 24.1478 16.3752 23.9439C17.0098 23.7727 17.4353 23.1477 17.3986 22.4409C17.3569 21.6561 16.8278 21.1244 16.0084 20.9935C15.5975 20.9275 15.1829 20.8347 14.7924 20.6876C13.3345 20.137 12.36 19.0432 11.7471 17.567C11.4435 16.836 10.8856 16.4657 10.2133 16.5682C9.55988 16.6677 9.09372 17.1741 9.01199 17.8721C8.91109 18.7339 9.45606 19.4192 10.3054 19.526Z" fill="#2CC84D"/>
<path d="M21.6946 19.526C21.2962 19.5762 20.8859 19.6163 20.51 19.7511C18.996 20.2934 17.9682 21.381 17.3667 22.9448C17.0408 23.7915 16.3806 24.1478 15.6248 23.9439C14.9902 23.7727 14.5647 23.1477 14.6014 22.4409C14.6421 21.6561 15.1722 21.1244 15.9916 20.9935C16.4025 20.9275 16.8171 20.8347 17.2076 20.6876C18.6655 20.137 19.64 19.0432 20.2529 17.567C20.5565 16.836 21.1144 16.4657 21.7867 16.5682C22.4401 16.6677 22.9063 17.1741 22.988 17.8721C23.0889 18.7339 22.5439 19.4192 21.6946 19.526Z" fill="#2CC84D"/>
<path d="M19.2975 15.9754C19.298 16.2181 19.2722 16.46 19.2203 16.6963C19.1668 16.9456 19.0843 17.1869 18.9747 17.4148C18.7145 17.9587 18.3162 18.4154 17.8243 18.7337C17.3323 19.052 16.7663 19.2193 16.1894 19.217C14.4726 19.217 13.0814 17.7663 13.0814 15.9761C13.0814 14.1859 14.4726 12.7344 16.1894 12.7344C16.4347 12.7336 16.6792 12.7636 16.9179 12.8238C16.6181 12.9651 16.3635 13.1949 16.1846 13.4855C16.0056 13.7762 15.9101 14.1153 15.9094 14.4621C15.9089 14.4869 15.9099 14.5118 15.9123 14.5365C15.9499 15.4986 16.7065 16.2673 17.6407 16.2673C17.8118 16.2674 17.9821 16.2413 18.1462 16.1897C18.3788 16.1159 18.5939 15.991 18.7776 15.8231C18.9612 15.6552 19.1092 15.4483 19.2118 15.2158C19.2694 15.4644 19.2982 15.7195 19.2975 15.9754Z" fill="#2CC84D"/>
<path d="M21.1719 9.55518C21.1719 9.74725 21.1302 9.88924 21.0468 9.98116C20.9634 10.0731 20.835 10.119 20.6616 10.119C20.4875 10.119 20.3585 10.0731 20.2744 9.98116C20.1903 9.88924 20.1486 9.74725 20.1493 9.55518C20.1493 9.36532 20.191 9.22443 20.2744 9.13251C20.3578 9.04059 20.4869 8.99463 20.6616 8.99463C20.8336 8.99463 20.9616 9.04059 21.0456 9.13251C21.1295 9.22443 21.1716 9.36532 21.1719 9.55518ZM21.114 9.55518C21.114 9.38573 21.0768 9.25967 21.0024 9.177C20.9281 9.09433 20.8144 9.053 20.6616 9.053C20.5069 9.053 20.3923 9.09433 20.318 9.177C20.2436 9.25967 20.2064 9.38573 20.2062 9.55518C20.2062 9.72669 20.2435 9.85385 20.318 9.93667C20.3925 10.0195 20.507 10.0608 20.6616 10.0607C20.8144 10.0607 20.928 10.0193 21.0022 9.93667C21.0764 9.854 21.1137 9.72684 21.114 9.55518ZM20.5254 9.63183V9.86156H20.4675V9.2433H20.6616C20.7427 9.2433 20.8007 9.25798 20.8354 9.28735C20.8702 9.31672 20.8876 9.36525 20.8876 9.43294C20.8901 9.47919 20.8779 9.52501 20.8529 9.56311C20.8256 9.59722 20.7874 9.61956 20.7456 9.62588L20.9022 9.86178H20.8296L20.6824 9.63183H20.5254ZM20.8298 9.4336C20.8312 9.41479 20.8282 9.3959 20.8212 9.37857C20.8141 9.36123 20.8032 9.34595 20.7894 9.33404C20.7616 9.31261 20.719 9.30189 20.6618 9.30189H20.5254V9.58073H20.6616C20.7195 9.58073 20.762 9.56884 20.7892 9.54549C20.8163 9.52214 20.8298 9.48382 20.8298 9.43272V9.4336Z" fill="#2CC84D"/>
</svg>
