<svg width="32" height="31" viewBox="0 0 32 31" fill="none" xmlns="http://www.w3.org/2000/svg">
<circle cx="15.889" cy="15.1624" r="15.1624" fill="#3EBBFF" fill-opacity="0.4"/>
<path d="M23.3333 14.8565L20 14.85C19.6333 14.85 19.3333 15.1425 19.3333 15.5V21.35C19.3333 21.7075 19.6333 22 20 22H23.3333C23.7 22 24 21.7075 24 21.35V15.5C24 15.1425 23.7 14.8565 23.3333 14.8565ZM23.3333 20.7H20V16.15H23.3333V20.7ZM9.33333 10.3H21.3333V13.55H22.6667V10.3C22.6667 9.5785 22.0667 9 21.3333 9H9.33333C8.59333 9 8 9.5785 8 10.3V18.1C8 18.815 8.59333 19.4 9.33333 19.4H14V20.7H12.6667V22H18V20.7H16.6667V19.4H18V18.1H9.33333V10.3ZM15.3333 11.6L14.6867 13.55H12.6667L14.3133 14.694L13.6867 16.5855L15.3333 15.4155L16.98 16.5855L16.3533 14.694L18 13.55H15.98L15.3333 11.6Z" fill="#3EBBFF"/>
</svg>
