<svg width="32" height="32" viewBox="0 0 32 32" fill="none" xmlns="http://www.w3.org/2000/svg">
<circle cx="15.8707" cy="15.8988" r="15.1624" fill="#6E768E"/>
<g clip-path="url(#clip0_530_335)">
<path d="M20.5 12H19.75V10.5C19.75 8.43 18.07 6.75 16 6.75C13.93 6.75 12.25 8.43 12.25 10.5V12H11.5C10.675 12 10 12.675 10 13.5V21C10 21.825 10.675 22.5 11.5 22.5H20.5C21.325 22.5 22 21.825 22 21V13.5C22 12.675 21.325 12 20.5 12ZM13.75 10.5C13.75 9.255 14.755 8.25 16 8.25C17.245 8.25 18.25 9.255 18.25 10.5V12H13.75V10.5ZM20.5 21H11.5V13.5H20.5V21ZM16 18.75C16.825 18.75 17.5 18.075 17.5 17.25C17.5 16.425 16.825 15.75 16 15.75C15.175 15.75 14.5 16.425 14.5 17.25C14.5 18.075 15.175 18.75 16 18.75Z" fill="#F8F9FC"/>
</g>
<defs>
<clipPath id="clip0_530_335">
<rect width="14" height="17" fill="white" transform="translate(9 6)"/>
</clipPath>
</defs>
</svg>
