<svg width="31" height="31" viewBox="0 0 31 31" fill="none" xmlns="http://www.w3.org/2000/svg">
<circle cx="15.6156" cy="15.7069" r="15.1624" fill="#1E2536"/>
<path d="M10.6842 24H19.5263L15.1053 19.5789L10.6842 24Z" fill="#3EBBFF"/>
<path d="M21.7368 10H8.47368C7.66316 10 7 10.6632 7 11.4737V20.3158C7 21.1263 7.66316 21.7895 8.47368 21.7895H11.4211V20.3158H8.47368V11.4737H21.7368V20.3158H18.7895V21.7895H21.7368C22.5474 21.7895 23.2105 21.1263 23.2105 20.3158V11.4737C23.2105 10.6632 22.5474 10 21.7368 10Z" fill="#3EBBFF"/>
<path d="M9.5 16H11.5L13 14.5V17L15 15V16.5H17V13.5L18.5 16.5H19.5" stroke="#3EBBFF"/>
</svg>
