<svg width="42" height="42" viewBox="0 0 42 42" fill="none" xmlns="http://www.w3.org/2000/svg">
<g clip-path="url(#clip0_77_286)">
<path opacity="0.3" d="M8.75 8.75V33.25H33.25V8.75H8.75ZM15.75 29.75H12.25V17.5H15.75V29.75ZM22.75 29.75H19.25V12.25H22.75V29.75ZM29.75 29.75H26.25V22.75H29.75V29.75Z" fill="#6E768E" fill-opacity="0.3"/>
<path d="M33.25 5.25H8.75C6.825 5.25 5.25 6.825 5.25 8.75V33.25C5.25 35.175 6.825 36.75 8.75 36.75H33.25C35.175 36.75 36.75 35.175 36.75 33.25V8.75C36.75 6.825 35.175 5.25 33.25 5.25ZM33.25 33.25H8.75V8.75H33.25V33.25ZM12.25 17.5H15.75V29.75H12.25V17.5ZM19.25 12.25H22.75V29.75H19.25V12.25ZM26.25 22.75H29.75V29.75H26.25V22.75Z" fill="#7789B0"/>
</g>
<defs>
<clipPath id="clip0_77_286">
<rect width="42" height="42" fill="white"/>
</clipPath>
</defs>
</svg>
