<svg width="42" height="42" viewBox="0 0 42 42" fill="none" xmlns="http://www.w3.org/2000/svg">
<g clip-path="url(#clip0_77_327)">
<path opacity="0.3" d="M27.9825 15.75H33.985C32.55 12.25 29.75 9.45 26.25 8.015V14.0175C26.8975 14.5075 27.4925 15.1025 27.9825 15.75ZM7 21C7 26.8625 10.57 31.92 15.75 33.985V27.965C13.5975 26.3375 12.25 23.765 12.25 20.9825C12.25 18.2 13.5975 15.6275 15.75 14V8.015C10.57 10.08 7 15.1375 7 21ZM26.25 27.9825V33.985C29.75 32.55 32.55 29.75 33.985 26.25H27.9825C27.4925 26.8975 26.8975 27.4925 26.25 27.9825Z" fill="#3EBBFF" fill-opacity="0.4"/>
<path d="M25.935 19.25H38.4125C37.59 10.99 31.01 4.41 22.75 3.5875V16.065C24.2375 16.6075 25.3925 17.7625 25.935 19.25ZM26.25 8.015C29.75 9.45 32.55 12.25 33.985 15.75H27.9825C27.4925 15.1025 26.8975 14.5075 26.25 14.0175V8.015ZM3.5 21C3.5 30.0825 10.4125 37.5375 19.25 38.4125V25.935C17.22 25.2 15.75 23.275 15.75 21C15.75 18.725 17.22 16.8 19.25 16.065V3.5875C10.4125 4.4625 3.5 11.9175 3.5 21ZM15.75 8.015V14.035C13.5975 15.645 12.25 18.2175 12.25 21C12.25 23.7825 13.5975 26.355 15.75 27.9825V34.0025C10.57 31.92 7 26.8625 7 21C7 15.1375 10.57 10.08 15.75 8.015ZM22.75 25.935V38.4125C31.01 37.59 37.59 31.01 38.4125 22.75H25.935C25.3925 24.2375 24.2375 25.3925 22.75 25.935ZM26.25 27.9825C26.8975 27.4925 27.4925 26.915 27.9825 26.25H33.985C32.55 29.75 29.75 32.55 26.25 33.985V27.9825Z" fill="#3EBBFF"/>
</g>
<defs>
<clipPath id="clip0_77_327">
<rect width="42" height="42" fill="white"/>
</clipPath>
</defs>
</svg>
