<svg width="16" height="16" viewBox="0 0 16 16" fill="none" xmlns="http://www.w3.org/2000/svg">
<g clip-path="url(#clip0_16_215)">
<path opacity="0.3" d="M2 11.3333H14V3.33334H2V11.3333ZM5.33333 6.66668H7.33333V4.66668H8.66667V6.66668H10.6667V8.00001H8.66667V10H7.33333V8.00001H5.33333V6.66668Z" fill="#6E768E"/>
<path d="M7.33329 10H8.66663V8H10.6666V6.66667H8.66663V4.66667H7.33329V6.66667H5.33329V8H7.33329V10ZM14 2H1.99996C1.25996 2 0.666626 2.59333 0.666626 3.33333V11.3333C0.666626 12.0667 1.25996 12.6667 1.99996 12.6667H5.33329V14H10.6666V12.6667H14C14.7333 12.6667 15.3333 12.0667 15.3333 11.3333V3.33333C15.3333 2.59333 14.7333 2 14 2ZM14 11.3333H1.99996V3.33333H14V11.3333Z" fill="#181F2E"/>
</g>
<defs>
<clipPath id="clip0_16_215">
<rect width="16" height="16" fill="white"/>
</clipPath>
</defs>
</svg>
