<svg width="16" height="16" viewBox="0 0 16 16" fill="none" xmlns="http://www.w3.org/2000/svg">
<path opacity="0.3" d="M8.66667 8.66666L6.66667 7.16666L4.66667 8.66666V2.66666H4V13.3333H12V2.66666H8.66667V8.66666Z" fill="#6E768E"/>
<path d="M12.0001 1.33334H4.00008C3.26675 1.33334 2.66675 1.93334 2.66675 2.66668V13.3333C2.66675 14.0667 3.26675 14.6667 4.00008 14.6667H12.0001C12.7334 14.6667 13.3334 14.0667 13.3334 13.3333V2.66668C13.3334 1.93334 12.7334 1.33334 12.0001 1.33334ZM6.00008 2.66668H7.33342V6.00001L6.66675 5.50001L6.00008 6.00001V2.66668ZM12.0001 13.3333H4.00008V2.66668H4.66675V8.66668L6.66675 7.16668L8.66675 8.66668V2.66668H12.0001V13.3333Z" fill="#181F2E"/>
</svg>
