<svg width="16" height="16" viewBox="0 0 16 16" fill="none" xmlns="http://www.w3.org/2000/svg">
<path opacity="0.3" d="M8 7.33333H9.33333V8.66667H8V10H9.33333V11.3333H8V12.6667H13.3333V6H8V7.33333ZM10.6667 7.33333H12V8.66667H10.6667V7.33333ZM10.6667 10H12V11.3333H10.6667V10Z" fill="#6E768E"/>
<path d="M10.6667 10H12V11.3333H10.6667V10ZM10.6667 7.33333H12V8.66667H10.6667V7.33333ZM14.6667 4.66667H8.00004V2H1.33337V14H14.6667V4.66667ZM4.00004 12.6667H2.66671V11.3333H4.00004V12.6667ZM4.00004 10H2.66671V8.66667H4.00004V10ZM4.00004 7.33333H2.66671V6H4.00004V7.33333ZM4.00004 4.66667H2.66671V3.33333H4.00004V4.66667ZM6.66671 12.6667H5.33337V11.3333H6.66671V12.6667ZM6.66671 10H5.33337V8.66667H6.66671V10ZM6.66671 7.33333H5.33337V6H6.66671V7.33333ZM6.66671 4.66667H5.33337V3.33333H6.66671V4.66667ZM13.3334 12.6667H8.00004V11.3333H9.33337V10H8.00004V8.66667H9.33337V7.33333H8.00004V6H13.3334V12.6667Z" fill="#181F2E"/>
</svg>
