<svg width="32" height="31" viewBox="0 0 32 31" fill="none" xmlns="http://www.w3.org/2000/svg">
<circle cx="15.8799" cy="15.1624" r="15.1624" fill="#2CC84D"/>
<path opacity="0.3" d="M17 17.6667C15.2067 17.6667 13.1533 18.52 13 19H21C20.8667 18.5267 18.8 17.6667 17 17.6667Z" fill="black"/>
<path opacity="0.3" d="M17 13.6667C17.7364 13.6667 18.3333 13.0697 18.3333 12.3333C18.3333 11.597 17.7364 11 17 11C16.2636 11 15.6667 11.597 15.6667 12.3333C15.6667 13.0697 16.2636 13.6667 17 13.6667Z" fill="black"/>
<path d="M17 15C18.4733 15 19.6667 13.8067 19.6667 12.3333C19.6667 10.86 18.4733 9.66666 17 9.66666C15.5267 9.66666 14.3333 10.86 14.3333 12.3333C14.3333 13.8067 15.5267 15 17 15ZM17 11C17.7333 11 18.3333 11.6 18.3333 12.3333C18.3333 13.0667 17.7333 13.6667 17 13.6667C16.2667 13.6667 15.6667 13.0667 15.6667 12.3333C15.6667 11.6 16.2667 11 17 11ZM17 16.3333C15.22 16.3333 11.6667 17.2267 11.6667 19V20.3333H22.3333V19C22.3333 17.2267 18.78 16.3333 17 16.3333ZM13 19C13.1467 18.52 15.2067 17.6667 17 17.6667C18.8 17.6667 20.8667 18.5267 21 19H13ZM11 17V15H13V13.6667H11V11.6667H9.66667V13.6667H7.66667V15H9.66667V17H11Z" fill="#1E2536"/>
</svg>
