<svg width="31" height="32" viewBox="0 0 31 32" fill="none" xmlns="http://www.w3.org/2000/svg">
<circle cx="15.3058" cy="15.8988" r="15.1624" fill="#1E2536"/>
<path opacity="0.3" d="M15.3058 11.0468C12.6311 11.0468 10.4538 13.2241 10.4538 15.8988C10.4538 17.0026 10.8298 18.0154 11.4484 18.8282C12.3157 17.7728 14.4203 17.415 15.3058 17.415C16.1912 17.415 18.2958 17.7728 19.1631 18.8282C19.7817 18.0154 20.1577 17.0026 20.1577 15.8988C20.1577 13.2241 17.9804 11.0468 15.3058 11.0468ZM15.3058 16.5053C14.1292 16.5053 13.183 15.5591 13.183 14.3825C13.183 13.2059 14.1292 12.2598 15.3058 12.2598C16.4824 12.2598 17.4285 13.2059 17.4285 14.3825C17.4285 15.5591 16.4824 16.5053 15.3058 16.5053Z" fill="#6E768E" fill-opacity="0.3"/>
<path d="M15.3057 9.83384C11.9579 9.83384 9.24078 12.5509 9.24078 15.8988C9.24078 19.2466 11.9579 21.9637 15.3057 21.9637C18.6536 21.9637 21.3707 19.2466 21.3707 15.8988C21.3707 12.5509 18.6536 9.83384 15.3057 9.83384ZM12.3157 19.7076C12.5765 19.1617 14.1655 18.628 15.3057 18.628C16.4459 18.628 18.041 19.1617 18.2958 19.7076C17.4709 20.3626 16.4338 20.7508 15.3057 20.7508C14.1777 20.7508 13.1405 20.3626 12.3157 19.7076ZM19.163 18.8282C18.2958 17.7729 16.1912 17.415 15.3057 17.415C14.4203 17.415 12.3157 17.7729 11.4484 18.8282C10.8298 18.0155 10.4538 17.0026 10.4538 15.8988C10.4538 13.2241 12.6311 11.0468 15.3057 11.0468C17.9804 11.0468 20.1577 13.2241 20.1577 15.8988C20.1577 17.0026 19.7817 18.0155 19.163 18.8282ZM15.3057 12.2598C14.1291 12.2598 13.183 13.206 13.183 14.3826C13.183 15.5592 14.1291 16.5053 15.3057 16.5053C16.4823 16.5053 17.4285 15.5592 17.4285 14.3826C17.4285 13.206 16.4823 12.2598 15.3057 12.2598ZM15.3057 15.2923C14.8023 15.2923 14.396 14.8859 14.396 14.3826C14.396 13.8792 14.8023 13.4728 15.3057 13.4728C15.8091 13.4728 16.2155 13.8792 16.2155 14.3826C16.2155 14.8859 15.8091 15.2923 15.3057 15.2923Z" fill="#DFE3E8"/>
</svg>
