<svg width="32" height="31" viewBox="0 0 32 31" fill="none" xmlns="http://www.w3.org/2000/svg">
<circle cx="16.0597" cy="15.7069" r="15.1624" fill="#3EBBFF"/>
<path d="M16 8.5C11.86 8.5 8.5 11.86 8.5 16C8.5 20.14 11.86 23.5 16 23.5C20.14 23.5 23.5 20.14 23.5 16C23.5 11.86 20.14 8.5 16 8.5ZM16 22C12.6925 22 10 19.3075 10 16C10 12.6925 12.6925 10 16 10C19.3075 10 22 12.6925 22 16C22 19.3075 19.3075 22 16 22ZM16.2325 15.355C14.905 15.0175 14.4775 14.65 14.4775 14.1025C14.4775 13.4725 15.07 13.03 16.0525 13.03C17.0875 13.03 17.4775 13.525 17.5075 14.26H18.79C18.7525 13.255 18.1375 12.3325 16.9225 12.0325V10.75H15.175V12.0175C14.0425 12.2575 13.135 12.9925 13.135 14.125C13.135 15.4675 14.2525 16.1425 15.88 16.5325C17.3425 16.8775 17.635 17.395 17.635 17.935C17.635 18.3325 17.3425 18.9775 16.06 18.9775C14.86 18.9775 14.3875 18.4375 14.32 17.7475H13.03C13.105 19.0225 14.05 19.7425 15.175 19.975V21.25H16.93V19.9975C18.07 19.78 18.97 19.1275 18.9775 17.92C18.97 16.27 17.5525 15.7 16.2325 15.355Z" fill="#1E2536"/>
</svg>
