<svg width="32" height="31" viewBox="0 0 32 31" fill="none" xmlns="http://www.w3.org/2000/svg">
<circle cx="15.889" cy="15.1624" r="15.1624" fill="#3EBBFF" fill-opacity="0.4"/>
<path opacity="0.3" d="M15.7266 9.6666C12.7866 9.6666 10.3932 12.0599 10.3932 14.9999C10.3932 16.2133 10.8066 17.3266 11.4866 18.2199C12.4399 17.0599 14.7532 16.6666 15.7266 16.6666C16.6999 16.6666 19.0133 17.0599 19.9666 18.2199C20.6466 17.3266 21.0599 16.2133 21.0599 14.9999C21.0599 12.0599 18.6666 9.6666 15.7266 9.6666ZM15.7266 15.6666C14.4332 15.6666 13.3932 14.6266 13.3932 13.3333C13.3932 12.0399 14.4332 10.9999 15.7266 10.9999C17.0199 10.9999 18.0599 12.0399 18.0599 13.3333C18.0599 14.6266 17.0199 15.6666 15.7266 15.6666Z" fill="#6E768E" fill-opacity="0.3"/>
<path d="M15.7266 8.33331C12.0466 8.33331 9.05994 11.32 9.05994 15C9.05994 18.68 12.0466 21.6666 15.7266 21.6666C19.4066 21.6666 22.3933 18.68 22.3933 15C22.3933 11.32 19.4066 8.33331 15.7266 8.33331ZM12.4399 19.1866C12.7266 18.5866 14.4733 18 15.7266 18C16.9799 18 18.7333 18.5866 19.0133 19.1866C18.1066 19.9066 16.9666 20.3333 15.7266 20.3333C14.4866 20.3333 13.3466 19.9066 12.4399 19.1866ZM19.9666 18.22C19.0133 17.06 16.6999 16.6666 15.7266 16.6666C14.7533 16.6666 12.4399 17.06 11.4866 18.22C10.8066 17.3266 10.3933 16.2133 10.3933 15C10.3933 12.06 12.7866 9.66665 15.7266 9.66665C18.6666 9.66665 21.0599 12.06 21.0599 15C21.0599 16.2133 20.6466 17.3266 19.9666 18.22ZM15.7266 11C14.4333 11 13.3933 12.04 13.3933 13.3333C13.3933 14.6266 14.4333 15.6666 15.7266 15.6666C17.0199 15.6666 18.0599 14.6266 18.0599 13.3333C18.0599 12.04 17.0199 11 15.7266 11ZM15.7266 14.3333C15.1733 14.3333 14.7266 13.8866 14.7266 13.3333C14.7266 12.78 15.1733 12.3333 15.7266 12.3333C16.2799 12.3333 16.7266 12.78 16.7266 13.3333C16.7266 13.8866 16.2799 14.3333 15.7266 14.3333Z" fill="#3EBBFF"/>
</svg>
