<svg width="46" height="46" viewBox="0 0 46 46" fill="none" xmlns="http://www.w3.org/2000/svg">
<circle cx="23" cy="23" r="23" fill="#1E2536"/>
<path d="M23 12V34" stroke="#F8F9FC" stroke-width="2" stroke-linecap="round" stroke-linejoin="round"/>
<path d="M28 16H20.5C19.5717 16 18.6815 16.3687 18.0251 17.0251C17.3687 17.6815 17 18.5717 17 19.5C17 20.4283 17.3687 21.3185 18.0251 21.9749C18.6815 22.6313 19.5717 23 20.5 23H25.5C26.4283 23 27.3185 23.3687 27.9749 24.0251C28.6313 24.6815 29 25.5717 29 26.5C29 27.4283 28.6313 28.3185 27.9749 28.9749C27.3185 29.6313 26.4283 30 25.5 30H17" stroke="#F8F9FC" stroke-width="2" stroke-linecap="round" stroke-linejoin="round"/>
</svg>
