<svg width="46" height="46" viewBox="0 0 46 46" fill="none" xmlns="http://www.w3.org/2000/svg">
<circle cx="23" cy="23" r="22.5" stroke="#6E768E" stroke-dasharray="4 4"/>
<path d="M14 29V23C14 20.6131 14.9482 18.3239 16.636 16.636C18.3239 14.9482 20.6131 14 23 14C25.3869 14 27.6761 14.9482 29.364 16.636C31.0518 18.3239 32 20.6131 32 23V29" stroke="#6E768E" stroke-width="2" stroke-linecap="round" stroke-linejoin="round"/>
<path d="M32 30C32 30.5304 31.7893 31.0391 31.4142 31.4142C31.0391 31.7893 30.5304 32 30 32H29C28.4696 32 27.9609 31.7893 27.5858 31.4142C27.2107 31.0391 27 30.5304 27 30V27C27 26.4696 27.2107 25.9609 27.5858 25.5858C27.9609 25.2107 28.4696 25 29 25H32V30ZM14 30C14 30.5304 14.2107 31.0391 14.5858 31.4142C14.9609 31.7893 15.4696 32 16 32H17C17.5304 32 18.0391 31.7893 18.4142 31.4142C18.7893 31.0391 19 30.5304 19 30V27C19 26.4696 18.7893 25.9609 18.4142 25.5858C18.0391 25.2107 17.5304 25 17 25H14V30Z" stroke="#6E768E" stroke-width="2" stroke-linecap="round" stroke-linejoin="round"/>
</svg>
