<svg width="16" height="20" viewBox="0 0 16 20" fill="none" xmlns="http://www.w3.org/2000/svg">
<path d="M10 0H2C0.9 0 0 0.9 0 2V18C0 19.1 0.89 20 1.99 20H14C15.1 20 16 19.1 16 18V6L10 0ZM14 18H2V2H9V7H14V18Z" fill="#1E2536"/>
<path d="M6.356 13.492V16H5.764L4.772 14.552V16H4.192V13.492H4.78L5.776 14.996V13.492H6.356Z" fill="#1E2536"/>
<path d="M7.35888 15.088V16H6.73887V13.492H8.43087V14.052H7.35888V14.568H8.28288V15.088H7.35888Z" fill="#1E2536"/>
<path d="M9.86103 14.5V14.952H8.58503V14.5H9.86103Z" fill="#1E2536"/>
<path d="M11.7963 15.416V15.892C11.7323 15.932 11.6243 15.9667 11.4723 15.996C11.3203 16.0253 11.1603 16.04 10.9923 16.04C10.6723 16.04 10.4416 15.96 10.3003 15.8C10.1589 15.6373 10.0883 15.3747 10.0883 15.012C10.0883 14.6573 10.1629 14.3973 10.3123 14.232C10.4616 14.0667 10.6976 13.984 11.0203 13.984C11.3349 13.984 11.5563 14.0467 11.6843 14.172C11.8149 14.2947 11.8803 14.5133 11.8803 14.828C11.8803 14.9133 11.8789 14.9813 11.8763 15.032C11.8736 15.0827 11.8683 15.1413 11.8603 15.208H10.6923C10.6949 15.3173 10.7243 15.3933 10.7803 15.436C10.8363 15.4787 10.9389 15.5 11.0883 15.5C11.2163 15.5 11.3469 15.492 11.4803 15.476C11.6136 15.4573 11.7189 15.4373 11.7963 15.416ZM11.0203 14.496C10.8923 14.496 10.8056 14.5187 10.7603 14.564C10.7149 14.6067 10.6923 14.692 10.6923 14.82H11.3363V14.732C11.3336 14.6387 11.3109 14.576 11.2683 14.544C11.2283 14.512 11.1456 14.496 11.0203 14.496Z" fill="#1E2536"/>
</svg>
