<svg width="16" height="16" viewBox="0 0 16 16" fill="none" xmlns="http://www.w3.org/2000/svg">
<g opacity="0.3">
<path d="M6.00002 7.33333C6.7364 7.33333 7.33335 6.73638 7.33335 6C7.33335 5.26362 6.7364 4.66666 6.00002 4.66666C5.26364 4.66666 4.66669 5.26362 4.66669 6C4.66669 6.73638 5.26364 7.33333 6.00002 7.33333Z" fill="#6E768E" fill-opacity="0.3"/>
<path d="M6 11.3333C4.20667 11.3333 2.15333 12.1867 2 12.6667H10C9.86667 12.1933 7.8 11.3333 6 11.3333Z" fill="#6E768E" fill-opacity="0.3"/>
</g>
<path d="M6.00002 8.66667C7.47335 8.66667 8.66669 7.47333 8.66669 6C8.66669 4.52667 7.47335 3.33333 6.00002 3.33333C4.52669 3.33333 3.33335 4.52667 3.33335 6C3.33335 7.47333 4.52669 8.66667 6.00002 8.66667ZM6.00002 4.66667C6.73335 4.66667 7.33335 5.26667 7.33335 6C7.33335 6.73333 6.73335 7.33333 6.00002 7.33333C5.26669 7.33333 4.66669 6.73333 4.66669 6C4.66669 5.26667 5.26669 4.66667 6.00002 4.66667ZM6.00002 10C4.22002 10 0.666687 10.8933 0.666687 12.6667V14H11.3334V12.6667C11.3334 10.8933 7.78002 10 6.00002 10ZM2.00002 12.6667C2.14669 12.1867 4.20669 11.3333 6.00002 11.3333C7.80002 11.3333 9.86669 12.1933 10 12.6667H2.00002ZM11.1734 3.57333L10.0534 4.7C10.6134 5.48667 10.6134 6.50667 10.0534 7.29333L11.1734 8.42C12.52 7.07333 12.52 5.04 11.1734 3.57333ZM13.38 1.33333L12.2934 2.42C14.14 4.43333 14.14 7.46 12.2934 9.58L13.38 10.6667C15.98 8.07333 15.9867 4.03333 13.38 1.33333Z" fill="#1E2536"/>
</svg>
