<svg width="16" height="16" viewBox="0 0 16 16" fill="none" xmlns="http://www.w3.org/2000/svg">
<path opacity="0.3" d="M11.6667 5.33335C11.9733 5.33335 12.2733 5.30002 12.56 5.25335C11.6267 3.70669 9.93332 2.66669 7.99999 2.66669C7.69332 2.66669 7.39332 2.70002 7.10666 2.74669C8.03999 4.29335 9.73332 5.33335 11.6667 5.33335ZM5.38666 3.35335C4.24666 4.00002 3.36666 5.05335 2.94666 6.31335C4.08666 5.66669 4.96666 4.61335 5.38666 3.35335Z" fill="#6E768E"/>
<path d="M7.99998 1.33331C4.31998 1.33331 1.33331 4.31998 1.33331 7.99998C1.33331 11.68 4.31998 14.6666 7.99998 14.6666C11.68 14.6666 14.6666 11.68 14.6666 7.99998C14.6666 4.31998 11.68 1.33331 7.99998 1.33331ZM7.99998 2.66665C9.93331 2.66665 11.6266 3.70665 12.56 5.25331C12.2733 5.29998 11.9733 5.33331 11.6666 5.33331C9.73331 5.33331 8.03998 4.29331 7.10665 2.74665C7.39331 2.69998 7.69331 2.66665 7.99998 2.66665ZM5.38665 3.35331C4.96665 4.61331 4.08665 5.66665 2.94665 6.31331C3.36665 5.05331 4.24665 3.99998 5.38665 3.35331ZM7.99998 13.3333C5.05998 13.3333 2.66665 10.94 2.66665 7.99998C2.66665 7.96665 2.67331 7.93331 2.67331 7.89998C4.40665 7.24665 5.79331 5.90665 6.49998 4.19998C7.71998 5.70665 9.57998 6.66665 11.6666 6.66665C12.1666 6.66665 12.6466 6.60665 13.1133 6.50665C13.2533 6.97998 13.3333 7.47998 13.3333 7.99998C13.3333 10.94 10.94 13.3333 7.99998 13.3333Z" fill="#181F2E"/>
<path d="M6.00002 9.49998C6.46026 9.49998 6.83335 9.12688 6.83335 8.66665C6.83335 8.20641 6.46026 7.83331 6.00002 7.83331C5.53978 7.83331 5.16669 8.20641 5.16669 8.66665C5.16669 9.12688 5.53978 9.49998 6.00002 9.49998Z" fill="#181F2E"/>
<path d="M10 9.49998C10.4603 9.49998 10.8334 9.12688 10.8334 8.66665C10.8334 8.20641 10.4603 7.83331 10 7.83331C9.53978 7.83331 9.16669 8.20641 9.16669 8.66665C9.16669 9.12688 9.53978 9.49998 10 9.49998Z" fill="#181F2E"/>
</svg>
