<svg width="16" height="16" viewBox="0 0 16 16" fill="none" xmlns="http://www.w3.org/2000/svg">
<path opacity="0.3" d="M7.99996 2.66666C5.05996 2.66666 2.66663 5.05999 2.66663 7.99999C2.66663 9.21332 3.07996 10.3267 3.75996 11.22C4.71329 10.06 7.02663 9.66666 7.99996 9.66666C8.97329 9.66666 11.2866 10.06 12.24 11.22C12.92 10.3267 13.3333 9.21332 13.3333 7.99999C13.3333 5.05999 10.94 2.66666 7.99996 2.66666ZM7.99996 8.66666C6.70663 8.66666 5.66663 7.62666 5.66663 6.33332C5.66663 5.03999 6.70663 3.99999 7.99996 3.99999C9.29329 3.99999 10.3333 5.03999 10.3333 6.33332C10.3333 7.62666 9.29329 8.66666 7.99996 8.66666Z" fill="#6E768E" fill-opacity="0.3"/>
<path d="M8.00004 1.33334C4.32004 1.33334 1.33337 4.32001 1.33337 8.00001C1.33337 11.68 4.32004 14.6667 8.00004 14.6667C11.68 14.6667 14.6667 11.68 14.6667 8.00001C14.6667 4.32001 11.68 1.33334 8.00004 1.33334ZM4.71337 12.1867C5.00004 11.5867 6.74671 11 8.00004 11C9.25337 11 11.0067 11.5867 11.2867 12.1867C10.38 12.9067 9.24004 13.3333 8.00004 13.3333C6.76004 13.3333 5.62004 12.9067 4.71337 12.1867ZM12.24 11.22C11.2867 10.06 8.97337 9.66668 8.00004 9.66668C7.02671 9.66668 4.71337 10.06 3.76004 11.22C3.08004 10.3267 2.66671 9.21334 2.66671 8.00001C2.66671 5.06001 5.06004 2.66668 8.00004 2.66668C10.94 2.66668 13.3334 5.06001 13.3334 8.00001C13.3334 9.21334 12.92 10.3267 12.24 11.22ZM8.00004 4.00001C6.70671 4.00001 5.66671 5.04001 5.66671 6.33334C5.66671 7.62668 6.70671 8.66668 8.00004 8.66668C9.29337 8.66668 10.3334 7.62668 10.3334 6.33334C10.3334 5.04001 9.29337 4.00001 8.00004 4.00001ZM8.00004 7.33334C7.44671 7.33334 7.00004 6.88668 7.00004 6.33334C7.00004 5.78001 7.44671 5.33334 8.00004 5.33334C8.55337 5.33334 9.00004 5.78001 9.00004 6.33334C9.00004 6.88668 8.55337 7.33334 8.00004 7.33334Z" fill="#6E768E"/>
</svg>
