<svg width="31" height="31" viewBox="0 0 31 31" fill="none" xmlns="http://www.w3.org/2000/svg">
<circle cx="15.6156" cy="15.7069" r="15.1624" fill="#1E2536"/>
<path d="M12.6667 15H14V16.3333H12.6667V15ZM20.6667 10.3333H20V9H18.6667V10.3333H13.3333V9H12V10.3333H11.3333C10.5933 10.3333 10.0067 10.9333 10.0067 11.6667L10 21C10 21.7333 10.5933 22.3333 11.3333 22.3333H20.6667C21.4 22.3333 22 21.7333 22 21V11.6667C22 10.9333 21.4 10.3333 20.6667 10.3333ZM20.6667 21H11.3333V14.3333H20.6667V21ZM20.6667 13H11.3333V11.6667H20.6667V13ZM18 15H19.3333V16.3333H18V15ZM15.3333 15H16.6667V16.3333H15.3333V15Z" fill="#2CC84D"/>
</svg>
