<svg width="128" height="25" viewBox="0 0 128 25" fill="none" xmlns="http://www.w3.org/2000/svg">
<path d="M16.786 13.66C16.786 14.492 16.5607 15.09 16.11 15.454C15.6593 15.818 14.9357 16 13.939 16H10.936V7.849H13.926C14.8273 7.849 15.4687 8.00067 15.85 8.304C16.2313 8.60733 16.422 9.12733 16.422 9.864C16.422 10.3927 16.3267 10.8 16.136 11.086C15.954 11.372 15.642 11.567 15.2 11.671C15.7287 11.7403 16.123 11.9397 16.383 12.269C16.6517 12.5983 16.786 13.062 16.786 13.66ZM15.395 10.02C15.395 9.56933 15.2867 9.25733 15.07 9.084C14.8533 8.902 14.4763 8.811 13.939 8.811H12.041V11.359H13.939C14.459 11.359 14.8317 11.255 15.057 11.047C15.2823 10.839 15.395 10.4967 15.395 10.02ZM15.72 13.595C15.72 13.1097 15.5857 12.7717 15.317 12.581C15.0483 12.3903 14.589 12.295 13.939 12.295H12.041V15.012H13.939C14.589 15.012 15.0483 14.908 15.317 14.7C15.5857 14.492 15.72 14.1237 15.72 13.595ZM19.5884 16.104C18.9297 16.104 18.4444 15.948 18.1324 15.636C17.8291 15.3153 17.6774 14.8127 17.6774 14.128C17.6774 13.4347 17.8637 12.945 18.2364 12.659C18.6091 12.3643 19.2417 12.217 20.1344 12.217C20.4291 12.217 20.7194 12.23 21.0054 12.256C21.2914 12.282 21.5601 12.321 21.8114 12.373V11.749C21.8114 11.2723 21.6901 10.93 21.4474 10.722C21.2047 10.514 20.8147 10.41 20.2774 10.41C19.8787 10.41 19.5277 10.4273 19.2244 10.462C18.9211 10.488 18.6177 10.5357 18.3144 10.605V9.682C18.6611 9.59533 19.0121 9.53467 19.3674 9.5C19.7314 9.46533 20.1431 9.448 20.6024 9.448C21.3737 9.448 21.9457 9.63 22.3184 9.994C22.6911 10.3493 22.8774 10.904 22.8774 11.658V16H21.9024L21.8504 15.402H21.8244C21.5644 15.61 21.2264 15.779 20.8104 15.909C20.4031 16.039 19.9957 16.104 19.5884 16.104ZM20.2514 13.088C19.6621 13.088 19.2504 13.1617 19.0164 13.309C18.7911 13.4477 18.6784 13.699 18.6784 14.063C18.6784 14.4443 18.7737 14.7217 18.9644 14.895C19.1551 15.0597 19.4671 15.142 19.9004 15.142C20.2384 15.142 20.5851 15.09 20.9404 14.986C21.2957 14.882 21.5861 14.752 21.8114 14.596V13.218C21.5254 13.1747 21.2567 13.1443 21.0054 13.127C20.7627 13.101 20.5114 13.088 20.2514 13.088ZM25.6485 8.46H24.5045V7.355H25.6485V8.46ZM25.6095 16H24.5435V9.578H25.6095V16ZM29.9888 12.659L32.1338 16H30.9508L29.3258 13.4L27.7138 16H26.5958L28.7408 12.672L26.6868 9.578H27.9478L29.3908 11.957L30.9118 9.578H32.0428L29.9888 12.659ZM34.5308 16.104C33.8721 16.104 33.3868 15.948 33.0748 15.636C32.7715 15.3153 32.6198 14.8127 32.6198 14.128C32.6198 13.4347 32.8061 12.945 33.1788 12.659C33.5515 12.3643 34.1841 12.217 35.0768 12.217C35.3715 12.217 35.6618 12.23 35.9478 12.256C36.2338 12.282 36.5025 12.321 36.7538 12.373V11.749C36.7538 11.2723 36.6325 10.93 36.3898 10.722C36.1471 10.514 35.7571 10.41 35.2198 10.41C34.8211 10.41 34.4701 10.4273 34.1668 10.462C33.8635 10.488 33.5601 10.5357 33.2568 10.605V9.682C33.6035 9.59533 33.9545 9.53467 34.3098 9.5C34.6738 9.46533 35.0855 9.448 35.5448 9.448C36.3161 9.448 36.8881 9.63 37.2608 9.994C37.6335 10.3493 37.8198 10.904 37.8198 11.658V16H36.8448L36.7928 15.402H36.7668C36.5068 15.61 36.1688 15.779 35.7528 15.909C35.3455 16.039 34.9381 16.104 34.5308 16.104ZM35.1938 13.088C34.6045 13.088 34.1928 13.1617 33.9588 13.309C33.7335 13.4477 33.6208 13.699 33.6208 14.063C33.6208 14.4443 33.7161 14.7217 33.9068 14.895C34.0975 15.0597 34.4095 15.142 34.8428 15.142C35.1808 15.142 35.5275 15.09 35.8828 14.986C36.2381 14.882 36.5285 14.752 36.7538 14.596V13.218C36.4678 13.1747 36.1991 13.1443 35.9478 13.127C35.7051 13.101 35.4538 13.088 35.1938 13.088ZM40.5519 16H39.4859V9.578H40.4609L40.5129 10.124H40.5649C40.9029 9.92467 41.2409 9.77733 41.5789 9.682C41.9169 9.578 42.2506 9.526 42.5799 9.526C42.7186 9.526 42.8096 9.526 42.8529 9.526C42.9049 9.526 42.9439 9.53033 42.9699 9.539V10.566C42.9093 10.5487 42.8313 10.54 42.7359 10.54C42.6493 10.5313 42.5106 10.527 42.3199 10.527C42.0079 10.527 41.7003 10.566 41.3969 10.644C41.1023 10.7133 40.8206 10.8217 40.5519 10.969V16ZM47.5054 16.104C46.8467 16.104 46.3614 15.948 46.0494 15.636C45.7461 15.3153 45.5944 14.8127 45.5944 14.128C45.5944 13.4347 45.7807 12.945 46.1534 12.659C46.5261 12.3643 47.1587 12.217 48.0514 12.217C48.3461 12.217 48.6364 12.23 48.9224 12.256C49.2084 12.282 49.4771 12.321 49.7284 12.373V11.749C49.7284 11.2723 49.6071 10.93 49.3644 10.722C49.1217 10.514 48.7317 10.41 48.1944 10.41C47.7957 10.41 47.4447 10.4273 47.1414 10.462C46.8381 10.488 46.5347 10.5357 46.2314 10.605V9.682C46.5781 9.59533 46.9291 9.53467 47.2844 9.5C47.6484 9.46533 48.0601 9.448 48.5194 9.448C49.2907 9.448 49.8627 9.63 50.2354 9.994C50.6081 10.3493 50.7944 10.904 50.7944 11.658V16H49.8194L49.7674 15.402H49.7414C49.4814 15.61 49.1434 15.779 48.7274 15.909C48.3201 16.039 47.9127 16.104 47.5054 16.104ZM48.1684 13.088C47.5791 13.088 47.1674 13.1617 46.9334 13.309C46.7081 13.4477 46.5954 13.699 46.5954 14.063C46.5954 14.4443 46.6907 14.7217 46.8814 14.895C47.0721 15.0597 47.3841 15.142 47.8174 15.142C48.1554 15.142 48.5021 15.09 48.8574 14.986C49.2127 14.882 49.5031 14.752 49.7284 14.596V13.218C49.4424 13.1747 49.1737 13.1443 48.9224 13.127C48.6797 13.101 48.4284 13.088 48.1684 13.088ZM53.5265 17.976H52.4605V9.578H53.3835L53.4485 10.15H53.4875C53.7562 9.92467 54.0769 9.75133 54.4495 9.63C54.8222 9.50867 55.2209 9.448 55.6455 9.448C56.5209 9.448 57.1449 9.708 57.5175 10.228C57.8989 10.748 58.0895 11.5973 58.0895 12.776C58.0895 13.9547 57.8599 14.804 57.4005 15.324C56.9412 15.844 56.1742 16.104 55.0995 16.104C54.7789 16.104 54.4842 16.0823 54.2155 16.039C53.9555 15.9957 53.7259 15.9307 53.5265 15.844V17.976ZM57.0235 12.776C57.0235 11.892 56.8979 11.2767 56.6465 10.93C56.4039 10.5833 55.9445 10.41 55.2685 10.41C54.9479 10.41 54.6402 10.4577 54.3455 10.553C54.0595 10.6397 53.7865 10.7697 53.5265 10.943V14.856C53.7432 14.9427 53.9642 15.0077 54.1895 15.051C54.4235 15.0943 54.6835 15.116 54.9695 15.116C55.7755 15.116 56.3172 14.9513 56.5945 14.622C56.8805 14.284 57.0235 13.6687 57.0235 12.776ZM60.5597 7.355V16H59.4937V7.355H60.5597ZM63.379 8.46H62.235V7.355H63.379V8.46ZM63.34 16H62.274V9.578H63.34V16ZM69.5393 14.726V15.623C69.3226 15.7617 68.9976 15.8787 68.5643 15.974C68.1396 16.0607 67.6933 16.104 67.2253 16.104C66.3153 16.104 65.674 15.857 65.3013 15.363C64.9373 14.869 64.7553 14.0067 64.7553 12.776C64.7553 11.5713 64.9936 10.7177 65.4703 10.215C65.947 9.70367 66.7573 9.448 67.9013 9.448C68.1526 9.448 68.378 9.45667 68.5773 9.474C68.7853 9.48267 69.0496 9.50867 69.3703 9.552V10.501C69.0496 10.4577 68.7853 10.4317 68.5773 10.423C68.378 10.4143 68.1526 10.41 67.9013 10.41C67.0866 10.41 66.5363 10.579 66.2503 10.917C65.9643 11.2463 65.8213 11.866 65.8213 12.776C65.8213 13.686 65.934 14.3057 66.1593 14.635C66.3846 14.9557 66.818 15.116 67.4593 15.116C67.8146 15.116 68.183 15.0813 68.5643 15.012C68.9456 14.934 69.2706 14.8387 69.5393 14.726ZM72.2232 16.104C71.5645 16.104 71.0792 15.948 70.7672 15.636C70.4638 15.3153 70.3122 14.8127 70.3122 14.128C70.3122 13.4347 70.4985 12.945 70.8712 12.659C71.2438 12.3643 71.8765 12.217 72.7692 12.217C73.0638 12.217 73.3542 12.23 73.6402 12.256C73.9262 12.282 74.1948 12.321 74.4462 12.373V11.749C74.4462 11.2723 74.3248 10.93 74.0822 10.722C73.8395 10.514 73.4495 10.41 72.9122 10.41C72.5135 10.41 72.1625 10.4273 71.8592 10.462C71.5558 10.488 71.2525 10.5357 70.9492 10.605V9.682C71.2958 9.59533 71.6468 9.53467 72.0022 9.5C72.3662 9.46533 72.7778 9.448 73.2372 9.448C74.0085 9.448 74.5805 9.63 74.9532 9.994C75.3258 10.3493 75.5122 10.904 75.5122 11.658V16H74.5372L74.4852 15.402H74.4592C74.1992 15.61 73.8612 15.779 73.4452 15.909C73.0378 16.039 72.6305 16.104 72.2232 16.104ZM72.8862 13.088C72.2968 13.088 71.8852 13.1617 71.6512 13.309C71.4258 13.4477 71.3132 13.699 71.3132 14.063C71.3132 14.4443 71.4085 14.7217 71.5992 14.895C71.7898 15.0597 72.1018 15.142 72.5352 15.142C72.8732 15.142 73.2198 15.09 73.5752 14.986C73.9305 14.882 74.2208 14.752 74.4462 14.596V13.218C74.1602 13.1747 73.8915 13.1443 73.6402 13.127C73.3975 13.101 73.1462 13.088 72.8862 13.088ZM80.8721 14.999V15.896C80.7335 15.9567 80.5428 16.0043 80.3001 16.039C80.0661 16.0823 79.8408 16.104 79.6241 16.104C78.8441 16.104 78.2851 15.9307 77.9471 15.584C77.6178 15.2373 77.4531 14.6393 77.4531 13.79V10.488H76.4911V9.578H77.4661L77.6351 8.018H78.5191V9.578H80.8071V10.488H78.5191V13.751C78.5191 14.2797 78.6145 14.6393 78.8051 14.83C79.0045 15.0207 79.3511 15.116 79.8451 15.116C80.0011 15.116 80.1788 15.103 80.3781 15.077C80.5861 15.051 80.7508 15.025 80.8721 14.999ZM83.0314 8.46H81.8874V7.355H83.0314V8.46ZM82.9924 16H81.9264V9.578H82.9924V16ZM88.9706 9.578H90.1406L87.6706 16H86.4486L83.9786 9.578H85.1616L87.0726 15.025L88.9706 9.578ZM96.6455 12.776C96.6455 13.9893 96.4202 14.8473 95.9695 15.35C95.5275 15.8527 94.7648 16.104 93.6815 16.104C92.5635 16.104 91.7878 15.8613 91.3545 15.376C90.9212 14.8907 90.7045 14.024 90.7045 12.776C90.7045 11.554 90.9255 10.696 91.3675 10.202C91.8182 9.69933 92.5895 9.448 93.6815 9.448C94.7995 9.448 95.5708 9.69067 95.9955 10.176C96.4288 10.6613 96.6455 11.528 96.6455 12.776ZM91.7705 12.763C91.7705 13.7163 91.8962 14.349 92.1475 14.661C92.3988 14.9643 92.9102 15.116 93.6815 15.116C94.4268 15.116 94.9295 14.9557 95.1895 14.635C95.4495 14.3057 95.5795 13.6817 95.5795 12.763C95.5795 11.8097 95.4538 11.1813 95.2025 10.878C94.9598 10.566 94.4528 10.41 93.6815 10.41C92.9275 10.41 92.4205 10.5703 92.1605 10.891C91.9005 11.2117 91.7705 11.8357 91.7705 12.763Z" fill="url(#paint0_linear_77_268)"/>
<path d="M115.059 10.7353V6.5H110.824V10.7353H108L112.941 15.6765L117.882 10.7353H115.059ZM112.941 13.6788L111.409 12.1471H112.235V7.91176H113.647V12.1471H114.473L112.941 13.6788ZM108 17.0882H117.882V18.5H108V17.0882Z" fill="url(#paint1_linear_77_268)"/>
<rect x="0.5" y="0.5" width="126.882" height="24" rx="3.5" stroke="url(#paint2_linear_77_268)"/>
<defs>
<linearGradient id="paint0_linear_77_268" x1="98" y1="3" x2="92.7836" y2="35.3178" gradientUnits="userSpaceOnUse">
<stop stop-color="#3EBBFF"/>
<stop offset="1" stop-color="#2CC84D"/>
</linearGradient>
<linearGradient id="paint1_linear_77_268" x1="117.882" y1="6.5" x2="107.46" y2="17.9817" gradientUnits="userSpaceOnUse">
<stop stop-color="#3EBBFF"/>
<stop offset="1" stop-color="#2CC84D"/>
</linearGradient>
<linearGradient id="paint2_linear_77_268" x1="127.882" y1="-1.24716e-06" x2="121.639" y2="42.7189" gradientUnits="userSpaceOnUse">
<stop stop-color="#3EBBFF"/>
<stop offset="1" stop-color="#2CC84D"/>
</linearGradient>
</defs>
</svg>
